<svg width="20" height="20" viewBox="0 0 20 20" fill="none" xmlns="http://www.w3.org/2000/svg">
<path d="M12.4996 0C16.1583 0 19.0993 2.83804 19.822 6.367H9.02783L11.0061 0.401512C11.0855 0.161792 11.3096 0 11.5622 0H12.4996Z" fill="#282828"/>
<path fill-rule="evenodd" clip-rule="evenodd" d="M19.98 7.5387C19.9928 7.73108 19.9995 7.9247 19.9996 8.11931C19.9996 8.13117 19.9998 8.14125 19.9996 8.15133C19.9976 8.27012 19.941 8.38798 18.8256 11.4041C18.4644 12.4099 17.3334 13.0854 16.0099 13.0854H13.9903L14.5374 14.4528C16.2414 14.1655 17.7732 15.4858 17.7732 17.1869C17.7732 17.9274 17.4865 18.629 16.9659 19.1624C15.876 20.2792 14.1233 20.2789 13.0338 19.1624C12.6531 18.7723 12.3982 18.2921 12.2882 17.7728H10.2116C9.94741 19.0212 8.84268 19.9993 7.50002 19.9993C5.97241 19.9993 4.72667 18.7252 4.72667 17.1869C4.72667 15.486 6.25815 14.1654 7.96247 14.4528L8.50949 13.0854H6.48998C5.16494 13.0854 4.0329 12.4084 3.67307 11.4009C3.43392 10.7312 3.24705 10.208 3.1009 9.79885C2.64517 8.52292 2.58531 8.35533 2.57103 8.3136C2.56993 8.31036 2.56945 8.30939 2.56945 8.30939C2.5671 8.30443 2.56579 8.29898 1.68277 5.42923C1.54352 4.97667 1.08232 4.64816 0.586164 4.64816C0.26258 4.64816 0.000244141 4.38582 0.000244141 4.06224C0.000244141 3.73865 0.26258 3.47632 0.586164 3.47632C1.59988 3.47632 2.51142 4.13767 2.80282 5.08463L3.55791 7.5387H19.98ZM10.2105 16.6009H12.2893C12.4425 15.8917 12.8672 15.2823 13.4495 14.8884L12.7282 13.0854H9.77164L9.05037 14.8884C9.63258 15.2823 10.0573 15.8917 10.2105 16.6009Z" fill="#282828"/>
</svg>
