<svg width="80" height="80" viewBox="0 0 80 80" fill="none" xmlns="http://www.w3.org/2000/svg">
<path d="M2.37188 9.29722C2.75647 5.64359 5.64359 2.75647 9.29723 2.37188L23.7051 0.855265C34.5384 -0.285089 45.4616 -0.285088 56.2949 0.855266L70.7028 2.37188C74.3564 2.75647 77.2435 5.64359 77.6281 9.29723L79.1447 23.7051C80.2851 34.5384 80.2851 45.4616 79.1447 56.2949L77.6281 70.7028C77.2435 74.3564 74.3564 77.2435 70.7028 77.6281L56.2949 79.1447C45.4616 80.2851 34.5384 80.2851 23.7051 79.1447L9.29722 77.6281C5.64359 77.2435 2.75647 74.3564 2.37188 70.7028L0.855265 56.2949C-0.285089 45.4616 -0.285088 34.5384 0.855266 23.7051L2.37188 9.29722Z" fill="#FFDD66"/>
</svg>
