<svg width="20" height="20" viewBox="0 0 20 20" fill="none" xmlns="http://www.w3.org/2000/svg">
<path d="M13.3203 3.32031C13.3203 5.15407 11.8338 6.64062 10 6.64062C8.16624 6.64062 6.67969 5.15407 6.67969 3.32031C6.67969 1.48655 8.16624 0 10 0C11.8338 0 13.3203 1.48655 13.3203 3.32031Z" fill="#282828"/>
<path d="M10.0001 7.8124C10.8989 7.8124 11.7369 7.54685 12.4399 7.09033C13.217 7.38728 13.9376 7.82548 14.5641 8.38783L10.0001 10.0993L5.43604 8.38783C6.06256 7.82548 6.78311 7.38732 7.56026 7.09033C8.26327 7.54685 9.1012 7.8124 10.0001 7.8124Z" fill="#282828"/>
<path d="M16.6406 12.1094C16.317 12.1094 16.0547 12.3717 16.0547 12.6953V14.2578C16.0547 14.5814 16.317 14.8438 16.6406 14.8438H17.0312C17.7863 14.8438 18.3984 14.2316 18.3984 13.4766C18.3984 12.7215 17.7863 12.1094 17.0312 12.1094H16.6406Z" fill="#282828"/>
<path d="M3.16406 9.63311C3.16406 9.44092 3.25828 9.261 3.41625 9.15151C3.57418 9.04198 3.77578 9.01694 3.95574 9.08448L9.41406 11.1314V20.0001L3.54426 17.7989C3.31559 17.7132 3.16406 17.4946 3.16406 17.2503V16.0157H3.35938C4.32863 16.0157 5.11719 15.2272 5.11719 14.2579V12.6954C5.11719 11.7262 4.32863 10.9376 3.35938 10.9376H3.16406V9.63311Z" fill="#282828"/>
<path d="M14.8828 14.2579V12.6954C14.8828 11.7262 15.6714 10.9376 16.6406 10.9376H16.8359V9.63311C16.8359 9.44092 16.7417 9.261 16.5837 9.15151C16.4258 9.04198 16.2241 9.01694 16.0443 9.08448L10.5859 11.1314V20.0001L16.4557 17.7989C16.6844 17.7132 16.8359 17.4946 16.8359 17.2503V16.0157H16.6406C15.6714 16.0157 14.8828 15.2272 14.8828 14.2579Z" fill="#282828"/>
<path d="M3.35938 12.1094C3.68297 12.1094 3.94531 12.3717 3.94531 12.6953V14.2578C3.94531 14.5814 3.68297 14.8438 3.35938 14.8438H2.96875C2.21367 14.8438 1.60156 14.2316 1.60156 13.4766C1.60156 12.7215 2.21367 12.1094 2.96875 12.1094H3.35938Z" fill="#282828"/>
</svg>
