<svg width="20" height="20" viewBox="0 0 20 20" fill="none" xmlns="http://www.w3.org/2000/svg">
<path d="M8.09753 9.77608L7.26923 10.6044L9.41447 12.7496V15.0659H4.75085C2.90381 15.0659 1.40112 13.5633 1.40112 11.7162C1.40112 10.9565 1.66266 10.2124 2.13759 9.62103C2.46476 9.21361 2.88432 8.88859 3.35476 8.67207C3.22739 8.25388 3.16312 7.81952 3.16312 7.37446C3.16312 6.30715 3.54582 5.27408 4.2407 4.46561C4.82562 3.78506 5.60024 3.29803 6.4567 3.065C6.56693 2.29729 6.92221 1.58914 7.48262 1.03475C8.15716 0.367471 9.05125 0 10.0001 0C10.949 0 11.8431 0.367472 12.5178 1.03482C13.0782 1.58921 13.4335 2.29737 13.5437 3.06507C14.4001 3.29811 15.1748 3.78514 15.7597 4.46569C16.4546 5.27416 16.8373 6.30723 16.8373 7.37454C16.8373 7.81959 16.773 8.25395 16.6456 8.67215C17.1161 8.88866 17.5356 9.21369 17.8628 9.62111C18.3377 10.2124 18.5993 10.9566 18.5993 11.7163C18.5993 13.5633 17.0966 15.066 15.2495 15.066H10.5859V10.637L12.7311 8.49179L11.9028 7.66349L10.5859 8.98035V5.09888H9.41447V6.86767L8.09757 5.55081L7.26926 6.37911L9.41443 8.52428V11.093L8.09753 9.77608Z" fill="#282828"/>
<path d="M9.41444 18.8285L9.41447 15.0659L10.5859 15.066L10.5859 18.8285H15.4165V19.9999H4.58374V18.8285H9.41444Z" fill="#282828"/>
</svg>
