<svg width="24" height="24" viewBox="0 0 24 24" fill="none" xmlns="http://www.w3.org/2000/svg">
<path d="M12.9192 16.7324C13.517 16.3866 13.9192 15.7403 13.9192 15C13.9192 13.8954 13.0238 13 11.9192 13C10.8146 13 9.91919 13.8954 9.91919 15C9.91919 15.7403 10.3214 16.3866 10.9192 16.7324V19C10.9192 19.5523 11.3669 20 11.9192 20C12.4715 20 12.9192 19.5523 12.9192 19V16.7324Z" fill="#CDCDCD"/>
<path fill-rule="evenodd" clip-rule="evenodd" d="M5.91919 9.20036V7C5.91919 3.68629 8.60548 1 11.9192 1C15.2329 1 17.9192 3.68629 17.9192 7V9.20033C19.1168 9.66285 19.9354 10.8704 19.8292 12.2331L19.1279 21.2331C19.0062 22.7948 17.7034 24 16.137 24H7.70148C6.13502 24 4.83224 22.7948 4.71055 21.2331L4.00925 12.2331C3.90307 10.8705 4.72166 9.6629 5.91919 9.20036ZM7.91919 7C7.91919 4.79086 9.71005 3 11.9192 3C14.1283 3 15.9192 4.79086 15.9192 7V9H7.91919V7ZM7.00018 11C6.41728 11 5.95792 11.4965 6.0032 12.0777L6.7045 21.0777C6.74507 21.5983 7.17933 22 7.70148 22H16.137C16.6591 22 17.0934 21.5983 17.134 21.0777L17.8353 12.0777C17.8805 11.4965 17.4212 11 16.8383 11H7.00018Z" fill="#CDCDCD"/>
</svg>
