<svg width="24" height="24" viewBox="0 0 24 24" fill="none" xmlns="http://www.w3.org/2000/svg">
<path d="M7 6C7 5.44772 7.44772 5 8 5H16C16.5523 5 17 5.44772 17 6C17 6.55228 16.5523 7 16 7H8C7.44772 7 7 6.55228 7 6Z" fill="#282828"/>
<path d="M8 9C7.44772 9 7 9.44771 7 10C7 10.5523 7.44772 11 8 11H16C16.5523 11 17 10.5523 17 10C17 9.44771 16.5523 9 16 9H8Z" fill="#282828"/>
<path d="M7 14C7 13.4477 7.44772 13 8 13H14C14.5523 13 15 13.4477 15 14C15 14.5523 14.5523 15 14 15H8C7.44772 15 7 14.5523 7 14Z" fill="#282828"/>
<path d="M8 17C7.44772 17 7 17.4477 7 18C7 18.5523 7.44772 19 8 19H12C12.5523 19 13 18.5523 13 18C13 17.4477 12.5523 17 12 17H8Z" fill="#282828"/>
<path fill-rule="evenodd" clip-rule="evenodd" d="M3 0H21V18C21 21.3137 18.3137 24 15 24H3V0ZM5 2V22H15C17.2091 22 19 20.2091 19 18V2H5Z" fill="#282828"/>
</svg>
