<svg width="20" height="20" viewBox="0 0 20 20" fill="none" xmlns="http://www.w3.org/2000/svg">
<path d="M9.99993 0C5.34727 0 1.57886 0.526333 1.57886 4.21051V14.7368C1.57886 15.6684 1.98938 16.4947 2.63147 17.0737V18.9474C2.63147 19.5263 3.10516 20 3.68409 20H4.73675C5.32097 20 5.78937 19.5263 5.78937 18.9474V17.8948H14.2104V18.9474C14.2104 19.5263 14.6789 20 15.2631 20H16.3157C16.8946 20 17.3683 19.5263 17.3683 18.9474V17.0737C18.0104 16.4948 18.4209 15.6684 18.4209 14.7369V4.21051C18.421 0.526333 14.6526 0 9.99993 0ZM5.26309 15.7895C4.38939 15.7895 3.68414 15.0842 3.68414 14.2105C3.68414 13.3368 4.38939 12.6316 5.26309 12.6316C6.13679 12.6316 6.84204 13.3368 6.84204 14.2105C6.84204 15.0842 6.13674 15.7895 5.26309 15.7895ZM14.7368 15.7895C13.8631 15.7895 13.1578 15.0842 13.1578 14.2105C13.1578 13.3368 13.8631 12.6316 14.7368 12.6316C15.6105 12.6316 16.3157 13.3368 16.3157 14.2105C16.3157 15.0842 15.6104 15.7895 14.7368 15.7895ZM16.3157 9.47369H3.68414V4.21051H16.3157V9.47369Z" fill="#282828"/>
</svg>
