<svg width="12" height="12" viewBox="0 0 12 12" fill="none" xmlns="http://www.w3.org/2000/svg">
<path fill-rule="evenodd" clip-rule="evenodd" d="M3.6076 1.6823C3.89405 2.14681 4.53659 3.26707 4.62949 3.47146C4.70893 3.60695 4.73392 3.76755 4.69943 3.92077C4.66493 4.07399 4.57353 4.20837 4.44369 4.29674C4.19115 4.44986 3.95504 4.62863 3.73915 4.83017C3.63076 5.03688 3.53013 5.83661 4.72239 7.02345C5.91465 8.21029 6.87463 8.45029 7.12237 8.18474C7.37011 7.91919 7.51728 7.62577 7.67211 7.47093C7.78513 7.34826 7.9399 7.27229 8.10609 7.25796C8.27227 7.24364 8.43777 7.29198 8.57011 7.39351C9.22623 7.74021 9.85981 8.12808 10.4669 8.5548C10.8463 8.84745 11.1327 9.06036 10.9933 9.44127C10.8653 9.82139 10.6537 10.168 10.374 10.4555C10.1461 10.682 9.86554 10.8485 9.55751 10.9401C9.24948 11.0317 8.92355 11.0455 8.60886 10.9804C7.71237 10.7587 6.86106 10.3833 6.09273 9.87094C5.27792 9.28824 4.52087 8.6287 3.83205 7.90139C3.20202 7.28253 2.62456 6.61236 2.10561 5.89779C1.59582 5.04546 1.22726 4.11629 1.01407 3.14629C0.94272 2.89003 0.935768 2.62011 0.993845 2.36052C1.05192 2.10093 1.17318 1.85972 1.34692 1.65829C1.6567 1.33706 2.05136 1.11046 2.48496 1.00488C2.7869 0.925909 3.1276 0.925909 3.6076 1.6823ZM5.99983 1.80539V0.967712C7.33447 0.967712 8.61444 1.4979 9.55817 2.44163C10.5019 3.38536 11.0321 4.66533 11.0321 5.99997H10.196C10.1954 4.88742 9.75302 3.82063 8.96619 3.03409C8.17935 2.24754 7.11238 1.8056 5.99983 1.80539ZM9.35205 5.99919H8.51596C8.51534 5.33213 8.25 4.6926 7.77824 4.22099C7.30649 3.74938 6.66689 3.48425 5.99983 3.48384V2.6446C6.44026 2.64481 6.8763 2.73177 7.28313 2.9005C7.68995 3.06924 8.05961 3.31644 8.37089 3.62801C8.68218 3.93958 8.929 4.30943 9.09736 4.71641C9.26572 5.12339 9.35226 5.55954 9.35205 5.99997V5.99919Z" fill="#282828"/>
</svg>
