<svg width="20" height="20" viewBox="0 0 20 20" fill="none" xmlns="http://www.w3.org/2000/svg">
<path d="M14 5.4C14 9.04508 12.2091 12 10 12C7.79086 12 6 9.04508 6 5.4C6 1.75492 7.79086 1 10 1C12.2091 1 14 1.75492 14 5.4Z" fill="#282828"/>
<path d="M18.402 18.2655C18.269 19.2586 17.4217 20 16.4197 20H3.58048C2.57852 20 1.73119 19.2586 1.59818 18.2655L1.33633 16.3103C1.14216 14.8605 2.02188 13.482 3.41858 13.0475L6.2425 12.1689C7.16478 13.2111 8.43121 13.9999 10.0001 13.9999C11.569 13.9999 12.8354 13.2111 13.7577 12.1689L16.5816 13.0475C17.9784 13.482 18.8581 14.8605 18.6639 16.3103L18.402 18.2655Z" fill="#282828"/>
</svg>
