<svg width="20" height="20" viewBox="0 0 20 20" fill="none" xmlns="http://www.w3.org/2000/svg">
<path fill-rule="evenodd" clip-rule="evenodd" d="M15.0671 15.8826C15.0471 16.1134 14.9619 16.3326 14.8228 16.5118C14.6836 16.691 14.4968 16.8221 14.2864 16.8881C14.076 16.9542 13.8518 16.9521 13.6425 16.8822C13.4332 16.8124 13.2485 16.6779 13.1123 16.4961C11.9152 15.4905 10.0484 14.0443 10.0484 14.0443C10.0484 14.0443 8.69749 16.5564 8.45588 16.8139C8.37613 16.8849 8.28332 16.9375 8.18321 16.9683C8.08309 16.9992 7.97785 17.0076 7.87447 16.9931C7.77108 16.9786 7.67175 16.9414 7.58276 16.884C7.49376 16.8265 7.41708 16.7501 7.35767 16.6596C7.34472 16.6216 7.33382 16.5829 7.32483 16.5437L8.07154 12.54L13.4748 6.93461L6.10569 11.3755C6.10569 11.3755 2.77813 10.3247 2.28393 10.1195C2.15645 10.0459 2.05132 9.93571 1.98069 9.80165C1.91006 9.66759 1.87693 9.51515 1.88497 9.36198C1.89302 9.2088 1.9419 9.06117 2.02614 8.93618C2.11037 8.81119 2.22648 8.71395 2.36088 8.65575C3.06374 8.27765 15.4625 3.27655 15.8798 3.14781C16.2971 3.01907 17.3954 2.68389 17.2746 3.81238C17.1538 4.94088 15.188 15.2632 15.0671 15.8826Z" fill="#202020"/>
</svg>
