<svg width="12" height="12" viewBox="0 0 12 12" fill="none" xmlns="http://www.w3.org/2000/svg">
<path d="M6.00786 6.19009C7.77602 6.19009 9.22087 4.80585 9.22087 3.09017C9.21076 1.38424 7.77602 0 6.00786 0C4.23969 0 2.79485 1.38424 2.79485 3.09992C2.79485 4.80585 4.22959 6.19009 6.00786 6.19009ZM6.00786 1.81316C6.74544 1.81316 7.34156 2.3883 7.34156 3.09992C7.34156 3.80179 6.74544 4.37693 6.00786 4.37693C5.28038 4.37693 4.67416 3.80179 4.67416 3.09992C4.67416 2.3883 5.27028 1.81316 6.00786 1.81316Z" fill="#282828"/>
<path d="M7.30114 8.71487C7.95789 8.56864 8.58433 8.32494 9.16024 7.974C9.59471 7.7108 9.73616 7.14541 9.45326 6.72624C9.18045 6.29732 8.59443 6.17059 8.15997 6.44354C6.84647 7.24289 5.14903 7.24289 3.83554 6.44354C3.40108 6.17059 2.82516 6.29732 2.54225 6.72624C2.26945 7.14541 2.4008 7.7108 2.83526 7.974C3.41118 8.32494 4.04772 8.57839 4.69436 8.71487L2.90599 10.45C2.54225 10.801 2.54225 11.3761 2.90599 11.7368C3.08786 11.9123 3.33035 12 3.57284 12C3.81533 12 4.05782 11.9123 4.23969 11.7368L5.99775 10.0309L7.76592 11.7368C8.12966 12.0877 8.72578 12.0877 9.09962 11.7368C9.46336 11.3859 9.46336 10.8107 9.09962 10.45L7.30114 8.71487Z" fill="#282828"/>
</svg>
