<svg width="20" height="20" viewBox="0 0 20 20" fill="none" xmlns="http://www.w3.org/2000/svg">
<path d="M16.04 18.4079C15.8468 19.3353 15.0294 20 14.0821 20H5.9179C4.97055 20 4.15316 19.3353 3.95994 18.4079L3.5131 16.2631C3.2163 14.8384 3.98473 13.4062 5.33587 12.8658L6.46881 12.4126C7.36789 13.3317 8.55579 14.0001 9.99999 14.0001C11.4442 14.0001 12.6321 13.3317 13.5312 12.4126L14.6641 12.8658C16.0152 13.4062 16.7837 14.8384 16.4869 16.2631L16.04 18.4079Z" fill="#282828"/>
<path d="M10 1.5C11.0003 1.00006 14.9998 1.00022 14.4999 5.00002C14.177 7.58258 14.9308 8.26034 15.877 8.62658C16.3939 8.82664 16.5549 9.44499 16.163 9.83689C16.0566 9.94327 15.9211 10.0158 15.7736 10.0453L12.3612 10.7278C11.6995 11.5277 10.8831 12 9.99986 12C9.11664 12 8.30027 11.5277 7.63849 10.7278L4.22611 10.0453C4.07858 10.0158 3.94309 9.94329 3.83671 9.83691C3.4448 9.44501 3.60583 8.82666 4.1227 8.6266C5.06894 8.26035 5.82267 7.58259 5.49986 5.00002C4.99989 1.00027 8.99963 1.00007 10 1.5Z" fill="#282828"/>
</svg>
