<svg width="12" height="8" viewBox="0 0 12 8" fill="none" xmlns="http://www.w3.org/2000/svg">
<path fill-rule="evenodd" clip-rule="evenodd" d="M7.15657 1.11225V3.63381C7.15384 3.67547 7.16103 3.71717 7.1776 3.75549C7.19417 3.79381 7.21962 3.82763 7.25183 3.85418C7.28405 3.88072 7.3221 3.89923 7.36288 3.90816C7.40366 3.9171 7.44599 3.91619 7.48635 3.90554C7.71861 3.88928 8.24351 1.7378 8.47654 1.26863C8.60022 1.0041 8.79893 0.781739 9.04792 0.629159C9.12636 0.558103 9.22646 0.515551 9.33205 0.50838H11.5602C11.6202 0.518699 11.6766 0.54408 11.7241 0.582142C11.7717 0.620204 11.8088 0.669717 11.832 0.726028C11.8552 0.782338 11.8638 0.843615 11.8568 0.904124C11.8499 0.964633 11.8278 1.02238 11.7924 1.07199C11.6182 1.45909 10.124 3.86685 10.0466 3.9644C9.95342 4.09027 9.89062 4.236 9.86313 4.39019C9.89359 4.57242 9.9777 4.74143 10.1047 4.87562C10.2595 5.05059 11.5106 6.42788 11.6275 6.54401C11.7377 6.67052 11.8114 6.82469 11.8404 6.98994C11.8125 7.13081 11.7343 7.2567 11.6203 7.34405C11.5063 7.4314 11.3644 7.47422 11.2211 7.46452C10.7364 7.46452 9.54415 7.46452 9.4079 7.46452C9.13556 7.36922 8.88501 7.2205 8.67089 7.0271C8.4967 6.87226 7.851 6.13522 7.75423 6.03845C7.72147 5.99906 7.67962 5.96825 7.63227 5.94869C7.58492 5.92913 7.53348 5.92141 7.48248 5.9262C7.36635 5.9262 7.1457 5.93781 7.15577 6.3791C7.18353 6.68482 7.11939 6.99188 6.97153 7.26091C6.89594 7.33339 6.80635 7.38966 6.70824 7.42627C6.61012 7.46288 6.50554 7.47905 6.40095 7.47381C5.60904 7.52181 4.8215 7.32534 4.14495 6.91098C2.92637 6.15459 1.539 4.13317 0.893325 2.84336C0.508186 2.20301 0.270218 1.48503 0.196579 0.741408C0.235289 0.60515 0.235252 0.50916 0.37151 0.50916C0.507768 0.50916 2.22109 0.50916 2.38444 0.50916C2.49755 0.565204 2.59196 0.652873 2.65619 0.761538C2.71426 0.838958 3.15707 2.16438 3.29255 2.39741C3.42803 2.63045 4.09615 3.9071 4.45847 3.9071C4.57878 3.88348 4.68487 3.81325 4.75361 3.71173C4.82236 3.61022 4.84817 3.48563 4.82544 3.36516C4.82544 3.05548 4.82544 1.83303 4.82544 1.67742C4.67791 1.33431 4.40805 1.05835 4.0683 0.903226C4.15295 0.790784 4.26093 0.697982 4.3848 0.631167C4.50868 0.564352 4.64552 0.525106 4.78598 0.51613C5.2505 0.496775 6.41565 0.496765 6.66727 0.5347C6.80231 0.56104 6.92436 0.632598 7.0133 0.737581C7.10224 0.842564 7.15278 0.97471 7.15657 1.11225Z" fill="#282828"/>
</svg>
