<svg width="12" height="11" viewBox="0 0 12 11" fill="none" xmlns="http://www.w3.org/2000/svg">
<path fill-rule="evenodd" clip-rule="evenodd" d="M9.46836 9.5613C9.4542 9.71537 9.39418 9.86168 9.29608 9.98133C9.19797 10.101 9.06627 10.1885 8.91796 10.2325C8.76964 10.2766 8.61157 10.2753 8.46404 10.2286C8.31652 10.182 8.18628 10.0922 8.09027 9.97084C7.2464 9.29961 5.93034 8.33421 5.93034 8.33421C5.93034 8.33421 4.97802 10.0111 4.8077 10.183C4.75148 10.2304 4.68605 10.2655 4.61547 10.2861C4.5449 10.3067 4.47071 10.3123 4.39783 10.3026C4.32495 10.2929 4.25492 10.2681 4.19218 10.2298C4.12944 10.1914 4.07539 10.1404 4.03351 10.08C4.02437 10.0546 4.01669 10.0288 4.01035 10.0026L4.53675 7.33006L8.34582 3.5884L3.15091 6.55277C3.15091 6.55277 0.805123 5.85137 0.456735 5.71433C0.366864 5.66524 0.292751 5.59168 0.242963 5.50219C0.193175 5.4127 0.169814 5.31095 0.175485 5.2087C0.181157 5.10645 0.215621 5.00791 0.275 4.92448C0.33438 4.84104 0.416232 4.77613 0.510982 4.73728C1.00647 4.4849 9.74706 1.14658 10.0413 1.06064C10.3354 0.974707 11.1097 0.750964 11.0245 1.50425C10.9393 2.25754 9.55352 9.14788 9.46836 9.5613Z" fill="#282828"/>
</svg>
