<svg width="64" height="46" viewBox="0 0 64 46" fill="none" xmlns="http://www.w3.org/2000/svg">
<path fill-rule="evenodd" clip-rule="evenodd" d="M57.0408 1.97038C59.782 2.70849 61.9436 4.86911 62.6814 7.61017C64.0525 12.6168 63.9997 23.0528 63.9997 23.0528C63.9997 23.0528 63.9997 33.4356 62.6819 38.4428C61.9436 41.1833 59.7825 43.3444 57.0408 44.0821C52.0325 45.4001 31.9999 45.4001 31.9999 45.4001C31.9999 45.4001 12.0195 45.4001 6.95896 44.0298C4.21727 43.2917 2.05614 41.1306 1.31787 38.39C0 33.4356 0 23.0001 0 23.0001C0 23.0001 0 12.6168 1.31787 7.61017C2.05566 4.8696 4.27 2.65577 6.95847 1.91815C11.9667 0.600098 31.9994 0.600098 31.9994 0.600098C31.9994 0.600098 52.0325 0.600098 57.0408 1.97038ZM42.2798 23.0001L25.6211 32.5926V13.4076L42.2798 23.0001Z" fill="#C4302B"/>
<path d="M42.2798 23L25.6211 32.5925V13.4075L42.2798 23Z" fill="white"/>
</svg>
