<svg width="80" height="80" viewBox="0 0 80 80" fill="none" xmlns="http://www.w3.org/2000/svg">
<path d="M29 73.5C29 74.3284 29.6716 75 30.5 75C31.3284 75 32 74.3284 32 73.5H29ZM35.0588 53.0625C35.6456 52.4777 35.6473 51.528 35.0625 50.9412C34.4777 50.3544 33.528 50.3527 32.9412 50.9375L35.0588 53.0625ZM30.6791 62L32.1771 62.0765L30.6791 62ZM24.4122 55.3093C23.7546 54.8055 22.8131 54.9301 22.3093 55.5878C21.8055 56.2454 21.9301 57.1869 22.5878 57.6907L24.4122 55.3093ZM50.5 7.5L51.2183 6.18316L50.5 5.79137L49.7817 6.18316L50.5 7.5ZM65.5 54.5C65.5 55.3284 66.1716 56 67 56C67.8284 56 68.5 55.3284 68.5 54.5H65.5ZM52.7285 20.6888C52.0043 20.2864 51.0911 20.5474 50.6888 21.2715C50.2864 21.9957 50.5474 22.9089 51.2715 23.3112L52.7285 20.6888ZM60.2715 28.3112C60.9957 28.7136 61.9089 28.4526 62.3112 27.7285C62.7136 27.0043 62.4526 26.0911 61.7285 25.6888L60.2715 28.3112ZM52.7285 30.1888C52.0043 29.7864 51.0911 30.0474 50.6888 30.7715C50.2864 31.4957 50.5474 32.4089 51.2715 32.8112L52.7285 30.1888ZM60.2715 37.8112C60.9957 38.2136 61.9089 37.9526 62.3112 37.2285C62.7136 36.5043 62.4526 35.5911 61.7285 35.1888L60.2715 37.8112ZM39.2466 66.5216C38.43 66.6615 37.8816 67.4369 38.0216 68.2534C38.1615 69.07 38.9369 69.6184 39.7534 69.4784L39.2466 66.5216ZM40 45L38.518 44.7684C38.4423 45.2528 38.6081 45.7437 38.9621 46.0829C39.316 46.4222 39.8134 46.567 40.2942 46.4709L40 45ZM20.5 40L19.9429 41.3927C20.3503 41.5557 20.8087 41.5321 21.1972 41.3281C21.5857 41.1242 21.8655 40.7603 21.9627 40.3324L20.5 40ZM14 51.5L14.6425 52.8555C15.025 52.6741 15.3131 52.3397 15.4357 51.9345C15.5583 51.5293 15.504 51.0912 15.2862 50.7283L14 51.5ZM9.02032 55.7539C8.88443 56.5712 9.43674 57.3438 10.2539 57.4797C11.0712 57.6156 11.8438 57.0633 11.9797 56.2461L9.02032 55.7539ZM64.9154 15.3629L65.6337 14.0461L64.9154 15.3629ZM36.0846 15.3629L35.3663 14.0461L36.0846 15.3629ZM32 73.5C32 67.94 32.0283 64.9913 32.1771 62.0765L29.181 61.9235C29.0279 64.9243 29 67.9436 29 73.5H32ZM32.1771 62.0765C32.331 59.0618 32.6098 57.2848 33.0532 56.0311C33.472 54.847 34.0639 54.054 35.0588 53.0625L32.9412 50.9375C31.7574 52.1172 30.8442 53.2797 30.2249 55.0307C29.6303 56.7119 29.3379 58.8494 29.181 61.9235L32.1771 62.0765ZM31.5913 60.8093L24.4122 55.3093L22.5878 57.6907L29.7668 63.1907L31.5913 60.8093ZM35.5 32.5V18.8745H32.5V32.5H35.5ZM36.8029 16.6798L51.2183 8.81684L49.7817 6.18316L35.3663 14.0461L36.8029 16.6798ZM49.7817 8.81684L64.1971 16.6798L65.6337 14.0461L51.2183 6.18316L49.7817 8.81684ZM65.5 18.8745V54.5H68.5V18.8745H65.5ZM51.2715 23.3112L60.2715 28.3112L61.7285 25.6888L52.7285 20.6888L51.2715 23.3112ZM51.2715 32.8112L60.2715 37.8112L61.7285 35.1888L52.7285 30.1888L51.2715 32.8112ZM39.7534 69.4784C44.4648 68.6708 47.8252 66.519 49.9246 63.6812C52.01 60.8624 52.7726 57.4729 52.4942 54.3061C52.2169 51.1511 50.8967 48.1194 48.6875 46.0279C46.4416 43.9016 43.327 42.8049 39.7058 43.5291L40.2942 46.4709C42.923 45.9451 45.0584 46.7234 46.625 48.2065C48.2283 49.7243 49.2831 52.0364 49.5058 54.5689C49.7274 57.0896 49.115 59.7314 47.5129 61.8969C45.9248 64.0435 43.2852 65.8292 39.2466 66.5216L39.7534 69.4784ZM41.482 45.2316C42.1536 40.9334 41.3723 37.5074 39.5713 35.038C37.7762 32.5767 35.0963 31.2437 32.3157 30.8872C26.8552 30.1871 20.4962 33.2485 19.0373 39.6676L21.9627 40.3324C23.0038 35.7515 27.6448 33.3129 31.9343 33.8628C34.0287 34.1313 35.9113 35.1108 37.1475 36.8058C38.3777 38.4926 39.0964 41.0666 38.518 44.7684L41.482 45.2316ZM21.0571 38.6073C17.8306 37.3167 14.3756 38.6434 12.4669 41.3156C10.51 44.0554 10.2007 48.0833 12.7138 52.2717L15.2862 50.7283C13.2993 47.4167 13.74 44.6946 14.9081 43.0594C16.1244 41.3566 18.1694 40.6833 19.9429 41.3927L21.0571 38.6073ZM13.3575 50.1445C11.9339 50.8193 10.8861 51.5416 10.1728 52.5394C9.46252 53.5328 9.20641 54.6348 9.02032 55.7539L11.9797 56.2461C12.1519 55.2102 12.324 54.6887 12.6132 54.2842C12.8993 53.884 13.4224 53.4337 14.6425 52.8555L13.3575 50.1445ZM64.1971 16.6798C65.0003 17.1179 65.5 17.9597 65.5 18.8745H68.5C68.5 16.8618 67.4006 15.0099 65.6337 14.0461L64.1971 16.6798ZM35.5 18.8745C35.5 17.9597 35.9997 17.1179 36.8029 16.6798L35.3663 14.0461C33.5994 15.0099 32.5 16.8618 32.5 18.8745H35.5Z" fill="#FFCB14"/>
</svg>
