<svg width="24" height="24" viewBox="0 0 24 24" fill="none" xmlns="http://www.w3.org/2000/svg">
<path d="M8 17V7H12.1235C12.9682 7 13.677 7.14323 14.2497 7.42969C14.826 7.71615 15.2608 8.11003 15.5544 8.61133C15.8515 9.10937 16 9.67578 16 10.3105C16 10.9518 15.8515 11.5215 15.5544 12.0195C15.2573 12.5176 14.8188 12.9098 14.2389 13.1963C13.6591 13.4795 12.945 13.6211 12.0966 13.6211H9.36376V12.1318H11.8282C12.3221 12.1318 12.7266 12.0537 13.0416 11.8975C13.3566 11.7412 13.5893 11.5264 13.7396 11.2529C13.8935 10.9795 13.9705 10.6654 13.9705 10.3105C13.9705 9.95573 13.8935 9.64323 13.7396 9.37305C13.5893 9.10286 13.3548 8.8929 13.0362 8.74316C12.7213 8.59017 12.315 8.51367 11.8174 8.51367H9.99195V17H8Z" fill="#858585"/>
<rect x="3" y="3" width="18" height="18" rx="3" stroke="#858585" stroke-width="2"/>
</svg>
