<svg width="112" height="112" viewBox="0 0 112 112" fill="none" xmlns="http://www.w3.org/2000/svg">
<g filter="url(#filter0_d_131_222)">
<circle cx="56" cy="48" r="40" fill="white"/>
</g>
<path d="M75.5323 30.6723C75.4542 30.6723 75.4542 30.5938 75.3761 30.5938L65.46 24.9386C64.2107 24.0746 62.493 23.9961 61.2437 24.8601L52.3427 29.7298C52.2646 29.7298 52.2646 29.8083 52.1865 29.8083C51.0934 30.5938 50.4688 31.8505 50.4688 33.1857V41.1972C50.1565 41.1972 49.9222 41.1187 49.6099 41.1187C46.1744 41.1187 43.1293 43.0823 41.6458 46.224C37.7418 46.5382 35.946 49.5229 35.7118 52.1148C35.5556 53.3715 35.7898 54.5497 36.1802 55.4137C35.2433 56.1991 34.4625 57.4558 34.8529 59.1053C35.0091 59.8122 35.7898 60.2834 36.4926 60.1263C37.1953 59.9692 37.6638 59.1838 37.5076 58.4769C37.2734 57.6129 38.8349 57.0631 38.8349 57.0631C39.4596 56.8275 39.7719 56.2777 39.7719 55.6493C39.6938 55.021 39.3034 54.5497 38.7569 54.3926C38.4445 54.0784 38.1322 52.8217 38.6788 51.4079C39.0692 50.3869 39.9281 49.2087 41.9581 49.0516L44.0663 50.3869C44.3005 50.544 44.5347 50.544 44.6909 50.544C45.0813 50.4654 45.3936 50.1512 45.4717 49.68C45.6279 48.8945 45.2375 47.8735 44.6128 47.4807L44.2224 47.2451C45.2375 45.2815 47.3456 43.9463 49.6099 43.9463C52.9673 43.9463 55.7001 46.6953 55.7001 49.9942C55.1535 50.4654 54.7631 51.3294 54.9193 52.1148C54.9974 52.6646 55.3097 52.9788 55.7001 52.9788C55.9343 52.9788 56.1686 52.9788 56.3247 52.8217L57.6521 51.9578C58.6671 52.1148 60.3068 53.1359 61.3999 55.0995C62.2588 56.5919 63.2738 59.5765 60.9314 62.8754C59.9945 64.2892 58.0425 65.7815 56.0905 65.703C55.3097 65.703 54.6851 66.3313 54.6851 67.0382C54.6851 67.8237 55.3097 68.452 56.0124 68.452H56.0905C59.2137 68.452 61.7903 66.3313 63.0396 64.4463C65.3819 61.0689 65.5381 57.1417 63.5861 53.6857C62.2588 51.3294 60.1506 49.6014 58.1986 49.2087C57.8863 45.9884 55.9343 43.2394 53.1235 41.9041C53.2015 41.747 53.2015 41.6685 53.2015 41.5114V33.1857C53.2015 32.793 53.3577 32.4788 53.5919 32.3217L62.7272 27.452C62.8053 27.452 62.8053 27.3735 62.8834 27.3735C63.1957 27.1378 63.5861 27.1378 63.8203 27.3735C63.8984 27.3735 63.8984 27.452 63.9765 27.452L73.8926 33.1072C74.1268 33.3428 74.283 33.657 74.283 33.9712V57.4558C74.283 58.2413 74.9076 58.9482 75.7665 58.9482C76.5473 58.9482 77.25 58.3198 77.25 57.4558V33.9712C77.1719 32.7145 76.5473 31.4578 75.5323 30.6723Z" fill="#0F0F0F"/>
<path d="M71.0819 37.4271L65.1478 34.1282C64.9136 33.9711 64.6013 33.8926 64.367 33.8926C63.8985 33.9711 63.5862 34.2853 63.4301 34.9137C63.1958 35.8562 63.6643 37.0343 64.367 37.5056L70.3011 40.8045C71.0038 41.2757 71.7846 40.9615 72.0188 40.019C72.253 39.0765 71.8626 37.8983 71.0819 37.4271Z" fill="#0F0F0F"/>
<path d="M71.0819 43.9456L65.1478 40.6468C64.9136 40.4897 64.6013 40.4111 64.367 40.4111C63.8985 40.4897 63.5862 40.8039 63.4301 41.4322C63.1958 42.3747 63.6643 43.5529 64.367 44.0242L70.3011 47.323C71.0038 47.7943 71.7846 47.4801 72.0188 46.5376C72.253 45.595 71.8626 44.4169 71.0819 43.9456Z" fill="#0F0F0F"/>
<path d="M50.0002 55.8839C49.1414 56.8264 48.4386 58.4759 48.2044 60.0468L46.3305 58.5544C45.7059 58.0831 44.7689 58.1617 44.3004 58.79C43.832 59.4184 43.91 60.3609 44.5347 60.9107L48.0482 63.6598V70.2575C48.0482 71.0429 48.6729 71.7498 49.5317 71.7498C50.3125 71.7498 51.0153 71.1215 51.0153 70.2575V61.7747C51.0153 60.2038 51.718 58.4759 52.2645 57.9261C52.8111 57.2977 52.8111 56.3552 52.1864 55.8054C51.4837 55.2556 50.5468 55.2556 50.0002 55.8839Z" fill="#0F0F0F"/>
<rect x="56" y="78" width="12.5" height="12.5" transform="rotate(45 56 78)" fill="white"/>
<defs>
<filter id="filter0_d_131_222" x="0" y="0" width="112" height="112" filterUnits="userSpaceOnUse" color-interpolation-filters="sRGB">
<feFlood flood-opacity="0" result="BackgroundImageFix"/>
<feColorMatrix in="SourceAlpha" type="matrix" values="0 0 0 0 0 0 0 0 0 0 0 0 0 0 0 0 0 0 127 0" result="hardAlpha"/>
<feOffset dy="8"/>
<feGaussianBlur stdDeviation="8"/>
<feComposite in2="hardAlpha" operator="out"/>
<feColorMatrix type="matrix" values="0 0 0 0 0 0 0 0 0 0 0 0 0 0 0 0 0 0 0.2 0"/>
<feBlend mode="normal" in2="BackgroundImageFix" result="effect1_dropShadow_131_222"/>
<feBlend mode="normal" in="SourceGraphic" in2="effect1_dropShadow_131_222" result="shape"/>
</filter>
</defs>
</svg>
