<svg width="28" height="28" viewBox="0 0 28 28" fill="none" xmlns="http://www.w3.org/2000/svg">
<path d="M14.0008 13.642C17.254 13.642 19.8907 11.036 19.8907 7.82074C19.8906 4.60547 17.254 2 14.0008 2C10.7465 2 8.10879 4.60547 8.10879 7.82074C8.10874 11.036 10.7465 13.642 14.0008 13.642ZM14.0008 4.95695C15.601 4.95695 16.8982 6.23892 16.8982 7.82069C16.8982 9.40251 15.601 10.6844 14.0008 10.6844C12.399 10.6844 11.1023 9.40251 11.1023 7.82069C11.1023 6.23892 12.399 4.95695 14.0008 4.95695ZM20.7901 14.3524C20.4583 13.692 19.5372 13.1429 18.3126 14.0958C16.6573 15.3839 14.0008 15.3839 14.0008 15.3839C14.0008 15.3839 11.3426 15.3839 9.6873 14.0958C8.46329 13.1429 7.54276 13.692 7.21035 14.3524C6.62962 15.5029 7.28478 16.0594 8.76336 16.9972C10.026 17.7985 11.7614 18.0977 12.8814 18.2095L11.9461 19.1338C10.6289 20.4348 9.35776 21.692 8.47527 22.5641C7.94737 23.0852 7.94737 23.9303 8.47527 24.4514L8.63378 24.6092C9.16168 25.1303 10.0163 25.1303 10.5442 24.6092L14.015 21.1788C15.3333 22.4805 16.6045 23.7371 17.4869 24.6092C18.0148 25.1303 18.8695 25.1303 19.3973 24.6092L19.5558 24.4514C20.0837 23.9297 20.0837 23.0852 19.5558 22.5636L16.085 19.1338L15.1475 18.2067C16.2686 18.0922 17.9847 17.7917 19.2371 16.9972C20.7157 16.0593 21.3697 15.5029 20.7901 14.3524Z" fill="black"/>
</svg>
