<svg width="28" height="28" viewBox="0 0 28 28" fill="none" xmlns="http://www.w3.org/2000/svg">
<path d="M24.1427 17.2157C24.1427 17.2157 26.2448 19.4504 26.7648 20.4845C26.775 20.4994 26.7829 20.516 26.7882 20.5335C27.0001 20.9155 27.0521 21.215 26.9481 21.4361C26.7726 21.8013 26.1785 21.9846 25.977 22H22.2616C22.0029 22 21.4647 21.9272 20.8095 21.4403C20.309 21.0638 19.8111 20.4439 19.3288 19.838C18.6086 18.9383 17.9859 18.1574 17.3554 18.1574C17.2758 18.1572 17.1967 18.1714 17.1214 18.1994C16.6443 18.3617 16.0385 19.0936 16.0385 21.0429C16.0385 21.653 15.5913 22 15.278 22H13.5763C12.9965 22 9.97793 21.7817 7.30122 18.7437C4.02132 15.0243 1.07552 7.56306 1.04692 7.49729C0.863617 7.01452 1.24842 6.75144 1.66442 6.75144H5.41622C5.91932 6.75144 6.08312 7.07889 6.19752 7.37275C6.33012 7.70999 6.82152 9.05895 7.62752 10.5744C8.93273 13.0401 9.73483 14.0434 10.3757 14.0434C10.4961 14.0438 10.6145 14.01 10.7189 13.9454C11.5561 13.4501 11.4001 10.2316 11.3611 9.56831C11.3611 9.43957 11.3598 8.13119 10.9308 7.49869C10.624 7.0453 10.1014 6.86899 9.78553 6.80462C9.87003 6.67308 10.0494 6.47158 10.2795 6.35263C10.8528 6.04478 11.8889 6 12.9172 6H13.4879C14.6033 6.01679 14.8919 6.09376 15.2975 6.2043C16.1139 6.4142 16.1295 6.98373 16.058 8.92321C16.0372 9.47735 16.0151 10.1015 16.0151 10.8361C16.0151 10.9928 16.0086 11.1677 16.0086 11.3455C15.9839 12.3404 15.9514 13.4613 16.604 13.9216C16.6887 13.9784 16.7864 14.0085 16.8861 14.0084C17.1123 14.0084 17.7896 14.0084 19.6265 10.615C20.4325 9.11632 21.0565 7.34896 21.0994 7.21602C21.1358 7.14186 21.245 6.93336 21.3776 6.8494C21.472 6.79538 21.5776 6.76839 21.6844 6.77103H26.0979C26.5789 6.77103 26.9052 6.8494 26.9689 7.0453C27.0755 7.36295 26.9481 8.33269 24.9331 11.2657C24.5938 11.7541 24.2961 12.1767 24.0348 12.5461C22.2083 15.1265 22.2083 15.2566 24.1427 17.2157Z" fill="#0F0F0F"/>
</svg>
