<svg width="28" height="28" viewBox="0 0 28 28" fill="none" xmlns="http://www.w3.org/2000/svg">
<path fill-rule="evenodd" clip-rule="evenodd" d="M23.5859 5.77456C24.6353 6.05712 25.4628 6.88423 25.7452 7.93354C26.2701 9.85014 26.2499 13.8452 26.2499 13.8452C26.2499 13.8452 26.2499 17.8198 25.7454 19.7366C25.4628 20.7858 24.6355 21.6131 23.5859 21.8954C21.6687 22.4 13.9999 22.4 13.9999 22.4C13.9999 22.4 6.35121 22.4 4.41397 21.8754C3.36442 21.5929 2.53712 20.7656 2.2545 19.7165C1.75 17.8198 1.75 13.825 1.75 13.825C1.75 13.825 1.75 9.85014 2.2545 7.93354C2.53693 6.88442 3.38461 6.03694 4.41379 5.75457C6.33102 5.25 13.9998 5.25 13.9998 5.25C13.9998 5.25 21.6687 5.25 23.5859 5.77456ZM18.9 13.8255L11.55 17.5005V10.1505L18.9 13.8255Z" fill="#161616"/>
</svg>
