<svg width="200" height="200" viewBox="0 0 200 200" fill="none" xmlns="http://www.w3.org/2000/svg">
<g clip-path="url(#clip0_5192_13227)">
<rect x="0.5" width="199" height="200" rx="99.5" fill="white"/>
<path d="M100 0C45 0 0.5 44.75 0.5 100C0.5 155.25 45 200 100 200C154.75 200 199.5 155.25 199.5 100C199.5 44.75 154.75 0 100 0Z" fill="#FFDD66"/>
<path d="M158.75 50.2503C158.5 50.2503 158.5 50.0003 158.25 50.0003L126.5 32.0003C122.5 29.2503 117 29.0003 113 31.7503L84.4996 47.2503C84.2496 47.2503 84.2496 47.5003 83.9996 47.5003C80.4996 50.0003 78.4996 54.0003 78.4996 58.2503V83.7503C77.4996 83.7503 76.7496 83.5003 75.7496 83.5003C64.7496 83.5003 54.9996 89.7503 50.2496 99.7503C37.7496 100.75 31.9996 110.25 31.2496 118.5C30.7496 122.5 31.4996 126.25 32.7496 129C29.7496 131.5 27.2496 135.5 28.4996 140.75C28.9996 143 31.4996 144.5 33.7496 144C35.9996 143.5 37.4996 141 36.9996 138.75C36.2496 136 41.2496 134.25 41.2496 134.25C43.2496 133.5 44.2496 131.75 44.2496 129.75C43.9996 127.75 42.7496 126.25 40.9996 125.75C39.9996 124.75 38.9996 120.75 40.7496 116.25C41.9996 113 44.7496 109.25 51.2496 108.75L57.9996 113C58.7496 113.5 59.4996 113.5 59.9996 113.5C61.2496 113.25 62.2496 112.25 62.4996 110.75C62.9996 108.25 61.7496 105 59.7496 103.75L58.4996 103C61.7496 96.7503 68.4996 92.5003 75.7496 92.5003C86.4996 92.5003 95.2496 101.25 95.2496 111.75C93.4996 113.25 92.2496 116 92.7496 118.5C92.9996 120.25 93.9996 121.25 95.2496 121.25C95.9996 121.25 96.7496 121.25 97.2496 120.75L101.5 118C104.75 118.5 110 121.75 113.5 128C116.25 132.75 119.5 142.25 112 152.75C109 157.25 102.75 162 96.4996 161.75C93.9996 161.75 91.9996 163.75 91.9996 166C91.9996 168.5 93.9996 170.5 96.2496 170.5H96.4996C106.5 170.5 114.75 163.75 118.75 157.75C126.25 147 126.75 134.5 120.5 123.5C116.25 116 109.5 110.5 103.25 109.25C102.25 99.0003 95.9996 90.2503 86.9996 86.0003C87.2496 85.5003 87.2496 85.2503 87.2496 84.7503V58.2503C87.2496 57.0003 87.7496 56.0003 88.4996 55.5003L117.75 40.0003C118 40.0003 118 39.7503 118.25 39.7503C119.25 39.0003 120.5 39.0003 121.25 39.7503C121.5 39.7503 121.5 40.0003 121.75 40.0003L153.5 58.0003C154.25 58.7503 154.75 59.7503 154.75 60.7503V135.5C154.75 138 156.75 140.25 159.5 140.25C162 140.25 164.25 138.25 164.25 135.5V60.7503C164 56.7503 162 52.7503 158.75 50.2503Z" fill="#282828"/>
<path d="M144.5 71.75L125.5 61.25C124.75 60.75 123.75 60.5 123 60.5C121.5 60.75 120.5 61.75 120 63.75C119.25 66.75 120.75 70.5 123 72L142 82.5C144.25 84 146.75 83 147.5 80C148.25 77 147 73.25 144.5 71.75Z" fill="#282828"/>
<path d="M144.5 92.5L125.5 82C124.75 81.5 123.75 81.25 123 81.25C121.5 81.5 120.5 82.5 120 84.5C119.25 87.5 120.75 91.25 123 92.75L142 103.25C144.25 104.75 146.75 103.75 147.5 100.75C148.25 97.75 147 94 144.5 92.5Z" fill="#282828"/>
<path d="M76.9997 130.498C74.2497 133.498 71.9997 138.748 71.2497 143.748L65.2497 138.998C63.2497 137.498 60.2497 137.748 58.7497 139.748C57.2497 141.748 57.4997 144.748 59.4997 146.498L70.7497 155.248V176.248C70.7497 178.748 72.7497 180.998 75.4997 180.998C77.9997 180.998 80.2497 178.998 80.2497 176.248V149.248C80.2497 144.248 82.4997 138.748 84.2497 136.998C85.9997 134.998 85.9997 131.998 83.9997 130.248C81.7497 128.498 78.7497 128.498 76.9997 130.498Z" fill="#282828"/>
</g>
<defs>
<clipPath id="clip0_5192_13227">
<rect x="0.5" width="199" height="200" rx="99.5" fill="white"/>
</clipPath>
</defs>
</svg>
