<svg width="175" height="50" viewBox="0 0 175 50" fill="none" xmlns="http://www.w3.org/2000/svg">
<g clip-path="url(#clip0_4210_55916)">
<path d="M63.9376 20.125V30.875H61.6876V26.5H57.0626V30.875H54.7501V20.125H57.0626V24.4375H61.6876V20.125H63.9376Z" fill="#282828"/>
<path d="M67.75 29.5C66.625 28.375 66.0625 27.0625 66.0625 25.5C66.0625 23.9375 66.625 22.625 67.75 21.5625C68.875 20.4375 70.25 19.9375 71.875 19.9375C73.5 19.9375 74.875 20.5 76 21.5625C77.125 22.6875 77.6875 24 77.6875 25.5C77.6875 27.0625 77.125 28.375 76 29.5C74.875 30.625 73.5 31.125 71.875 31.125C70.25 31.125 68.875 30.5625 67.75 29.5ZM69.5 23C68.8125 23.6875 68.5 24.5 68.5 25.5C68.5 26.5 68.8125 27.3125 69.5 28C70.1875 28.6875 71 29 71.9375 29C72.875 29 73.6875 28.6875 74.375 28C75.0625 27.3125 75.375 26.5 75.375 25.5C75.375 24.5 75.0625 23.6875 74.375 23C73.6875 22.3125 72.875 22 71.9375 22C70.9375 21.9375 70.125 22.3125 69.5 23Z" fill="#282828"/>
<path d="M84.75 30.875H79.875V20.125H84.5C85.5 20.125 86.25 20.4375 86.9375 21C87.5625 21.5625 87.875 22.25 87.875 23C87.875 23.3125 87.8125 23.5625 87.75 23.8125C87.6875 24.0625 87.5625 24.3125 87.4375 24.4375C87.3125 24.625 87.1875 24.75 87.0625 24.875C86.9375 25 86.8125 25.0625 86.75 25.125L86.625 25.1875C86.6875 25.1875 86.75 25.25 86.8125 25.25C86.875 25.3125 87 25.375 87.25 25.5C87.4375 25.625 87.625 25.8125 87.8125 26C87.9375 26.1875 88.125 26.4375 88.25 26.6875C88.375 27 88.4375 27.3125 88.4375 27.6875C88.4375 28.5625 88.125 29.3125 87.4375 29.9375C86.6875 30.5625 85.8125 30.875 84.75 30.875ZM84.3125 22H82.1875V24.375H84.3125C84.6875 24.375 85 24.25 85.1875 24.0625C85.375 23.875 85.5 23.5625 85.5 23.25C85.5 22.875 85.375 22.625 85.1875 22.4375C85 22.125 84.6875 22 84.3125 22ZM82.1875 28.9375H84.625C85.0625 28.9375 85.375 28.8125 85.6875 28.5625C85.9375 28.3125 86.125 28 86.125 27.5625C86.125 27.1875 86 26.8125 85.6875 26.5625C85.4375 26.3125 85.0625 26.1875 84.625 26.1875H82.1875V28.9375Z" fill="#282828"/>
<path d="M94.875 30.875H90.5V20.125H92.8125V23.6875H94.875C96 23.6875 96.875 24.0625 97.625 24.75C98.375 25.4375 98.6875 26.3125 98.6875 27.3125C98.6875 28.3125 98.3125 29.1875 97.625 29.875C96.875 30.5625 96 30.875 94.875 30.875ZM92.8125 28.8125H94.8125C95.25 28.8125 95.625 28.6875 95.9375 28.375C96.25 28.0625 96.375 27.6875 96.375 27.25C96.375 26.8125 96.25 26.4375 95.9375 26.1875C95.625 25.875 95.25 25.75 94.8125 25.75H92.8125V28.8125ZM102.25 30.875H99.9375V20.125H102.25V30.875Z" fill="#282828"/>
<path d="M114.562 30.875H112.25V24.0625L107 30.875H105V20.125H107.25V26.9375L112.563 20.125H114.562V30.875Z" fill="#282828"/>
<path d="M120.438 30.875V20.125H127.688V22.1875H122.75V30.875H120.438Z" fill="#282828"/>
<path d="M130 29.5C128.875 28.375 128.312 27.0625 128.312 25.5C128.312 23.9375 128.875 22.625 130 21.5625C131.125 20.4375 132.5 19.9375 134.125 19.9375C135.75 19.9375 137.125 20.5 138.25 21.5625C139.375 22.6875 139.937 24 139.937 25.5C139.937 27.0625 139.375 28.375 138.25 29.5C137.125 30.625 135.75 31.125 134.125 31.125C132.5 31.125 131.125 30.5625 130 29.5ZM131.687 23C131 23.6875 130.687 24.5 130.687 25.5C130.687 26.5 131 27.3125 131.687 28C132.375 28.6875 133.187 29 134.125 29C135.062 29 135.875 28.6875 136.562 28C137.25 27.3125 137.562 26.5 137.562 25.5C137.562 24.5 137.25 23.6875 136.562 23C135.875 22.3125 135.062 22 134.125 22C133.187 21.9375 132.375 22.3125 131.687 23Z" fill="#282828"/>
<path d="M142.062 20.125H146.562C147.688 20.125 148.562 20.5 149.312 21.1875C150.062 21.875 150.375 22.75 150.375 23.75C150.375 24.75 150 25.625 149.312 26.3125C148.562 27 147.688 27.375 146.562 27.375H144.375V30.9375H142.062V20.125ZM146.5 22.1875H144.375V25.25H146.5C146.937 25.25 147.312 25.125 147.625 24.8125C147.937 24.5 148.062 24.125 148.062 23.75C148.062 23.3125 147.937 22.9375 147.625 22.625C147.375 22.3125 147 22.1875 146.5 22.1875Z" fill="#282828"/>
<path d="M153.562 29.5C152.437 28.375 151.875 27.0625 151.875 25.5C151.875 23.9375 152.437 22.625 153.562 21.5625C154.687 20.4375 156.063 19.9375 157.688 19.9375C159.313 19.9375 160.688 20.5 161.813 21.5625C162.938 22.6875 163.5 24 163.5 25.5C163.5 27.0625 162.938 28.375 161.813 29.5C160.688 30.625 159.313 31.125 157.688 31.125C156.063 31.125 154.687 30.5625 153.562 29.5ZM155.25 23C154.562 23.6875 154.25 24.5 154.25 25.5C154.25 26.5 154.562 27.3125 155.25 28C155.937 28.6875 156.75 29 157.688 29C158.625 29 159.438 28.6875 160.125 28C160.813 27.3125 161.125 26.5 161.125 25.5C161.125 24.5 160.813 23.6875 160.125 23C159.438 22.3125 158.625 22 157.688 22C156.75 21.9375 155.937 22.3125 155.25 23Z" fill="#282828"/>
<path d="M164 28.8125H164.625C164.688 28.75 164.75 28.6875 164.813 28.625C164.875 28.5625 165 28.3125 165.25 28C165.438 27.6875 165.625 27.3125 165.75 26.9375C165.875 26.5625 166.062 26.0625 166.125 25.4375C166.25 24.8125 166.313 24.125 166.313 23.375V20.0625H173.75V28.75H175.063V33.125H172.75V30.875H166.25V33.125H163.938V28.8125H164ZM168.563 23.4375C168.563 24.125 168.5 24.8125 168.375 25.4375C168.25 26.0625 168.125 26.5625 167.938 27C167.75 27.375 167.625 27.75 167.438 28C167.25 28.3125 167.125 28.5 167 28.625L166.813 28.8125H171.313V22.1875H168.5V23.4375H168.563Z" fill="#282828"/>
<path d="M111.437 16.875H108.062V18.6875H111.437V16.875Z" fill="#282828"/>
<path d="M24.875 0C11.125 0 0 11.1875 0 25C0 38.8125 11.125 50 24.875 50C38.5625 50 49.75 38.8125 49.75 25C49.75 11.1875 38.5625 0 24.875 0Z" fill="#FFDD66"/>
<path d="M39.5625 12.5626C39.5 12.5626 39.5 12.5001 39.4375 12.5001L31.5 8.00009C30.5 7.31259 29.125 7.25009 28.125 7.93759L21 11.8126C20.9375 11.8126 20.9375 11.8751 20.875 11.8751C20 12.5001 19.5 13.5001 19.5 14.5626V20.9376C19.25 20.9376 19.0625 20.8751 18.8125 20.8751C16.0625 20.8751 13.625 22.4376 12.4375 24.9376C9.31248 25.1876 7.87498 27.5626 7.68748 29.6251C7.56248 30.6251 7.74998 31.5626 8.06248 32.2501C7.31248 32.8751 6.68748 33.8751 6.99998 35.1876C7.12498 35.7501 7.74998 36.1251 8.31248 36.0001C8.87498 35.8751 9.24998 35.2501 9.12498 34.6876C8.93748 34.0001 10.1875 33.5626 10.1875 33.5626C10.6875 33.3751 10.9375 32.9376 10.9375 32.4376C10.875 31.9376 10.5625 31.5626 10.125 31.4376C9.87498 31.1876 9.62498 30.1876 10.0625 29.0626C10.375 28.2501 11.0625 27.3126 12.6875 27.1876L14.375 28.2501C14.5625 28.3751 14.75 28.3751 14.875 28.3751C15.1875 28.3126 15.4375 28.0626 15.5 27.6876C15.625 27.0626 15.3125 26.2501 14.8125 25.9376L14.5 25.7501C15.3125 24.1876 17 23.1251 18.8125 23.1251C21.5 23.1251 23.6875 25.3126 23.6875 27.9376C23.25 28.3126 22.9375 29.0001 23.0625 29.6251C23.125 30.0626 23.375 30.3126 23.6875 30.3126C23.875 30.3126 24.0625 30.3126 24.1875 30.1876L25.25 29.5001C26.0625 29.6251 27.375 30.4376 28.25 32.0001C28.9375 33.1876 29.75 35.5626 27.875 38.1876C27.125 39.3126 25.5625 40.5001 24 40.4376C23.375 40.4376 22.875 40.9376 22.875 41.5001C22.875 42.1251 23.375 42.6251 23.9375 42.6251H24C26.5 42.6251 28.5625 40.9376 29.5625 39.4376C31.4375 36.7501 31.5625 33.6251 30 30.8751C28.9375 29.0001 27.25 27.6251 25.6875 27.3126C25.4375 24.7501 23.875 22.5626 21.625 21.5001C21.6875 21.3751 21.6875 21.3126 21.6875 21.1876V14.5626C21.6875 14.2501 21.8125 14.0001 22 13.8751L29.3125 10.0001C29.375 10.0001 29.375 9.93759 29.4375 9.93759C29.6875 9.75009 30 9.75009 30.1875 9.93759C30.25 9.93759 30.25 10.0001 30.3125 10.0001L38.25 14.5001C38.4375 14.6876 38.5625 14.9376 38.5625 15.1876V33.8751C38.5625 34.5001 39.0625 35.0626 39.75 35.0626C40.375 35.0626 40.9375 34.5626 40.9375 33.8751V15.1876C40.875 14.1876 40.375 13.1876 39.5625 12.5626Z" fill="#282828"/>
<path d="M36 17.9375L31.25 15.3125C31.0625 15.1875 30.8125 15.125 30.625 15.125C30.25 15.1875 30 15.4375 29.875 15.9375C29.6875 16.6875 30.0625 17.625 30.625 18L35.375 20.625C35.9375 21 36.5625 20.75 36.75 20C36.9375 19.25 36.625 18.3125 36 17.9375Z" fill="#282828"/>
<path d="M36 23.125L31.25 20.5C31.0625 20.375 30.8125 20.3125 30.625 20.3125C30.25 20.375 30 20.625 29.875 21.125C29.6875 21.875 30.0625 22.8125 30.625 23.1875L35.375 25.8125C35.9375 26.1875 36.5625 25.9375 36.75 25.1875C36.9375 24.4375 36.625 23.5 36 23.125Z" fill="#282828"/>
<path d="M19.125 32.6244C18.4375 33.3744 17.875 34.6869 17.6875 35.9369L16.1875 34.7494C15.6875 34.3744 14.9375 34.4369 14.5625 34.9369C14.1875 35.4369 14.25 36.1869 14.75 36.6244L17.5625 38.8119V44.0619C17.5625 44.6869 18.0625 45.2494 18.75 45.2494C19.375 45.2494 19.9375 44.7494 19.9375 44.0619V37.3119C19.9375 36.0619 20.5 34.6869 20.9375 34.2494C21.375 33.7494 21.375 32.9994 20.875 32.5619C20.3125 32.1244 19.5625 32.1244 19.125 32.6244Z" fill="#282828"/>
</g>
<defs>
<clipPath id="clip0_4210_55916">
<rect width="175" height="50" fill="white"/>
</clipPath>
</defs>
</svg>
