<svg width="32" height="32" viewBox="0 0 32 32" fill="none" xmlns="http://www.w3.org/2000/svg">
<path d="M32 16C32 24.8366 24.8366 32 16 32C7.16344 32 0 24.8366 0 16C0 7.16344 7.16344 0 16 0C24.8366 0 32 7.16344 32 16Z" fill="#FFDD66"/>
<g clip-path="url(#clip0_4333_59249)">
<path d="M16 8.72729C12.6163 8.72729 9.87561 9.11008 9.87561 11.7895V19.445C9.87561 20.1225 10.1742 20.7234 10.6411 21.1445V22.5072C10.6411 22.9282 10.9856 23.2727 11.4067 23.2727H12.1723C12.5971 23.2727 12.9378 22.9282 12.9378 22.5072V21.7417H19.0622V22.5072C19.0622 22.9282 19.4029 23.2727 19.8278 23.2727H20.5933C21.0143 23.2727 21.3588 22.9282 21.3588 22.5072V21.1445C21.8258 20.7235 22.1244 20.1225 22.1244 19.445V11.7895C22.1244 9.11008 19.3838 8.72729 16 8.72729ZM12.5551 20.2106C11.9196 20.2106 11.4067 19.6976 11.4067 19.0622C11.4067 18.4268 11.9196 17.9139 12.5551 17.9139C13.1905 17.9139 13.7034 18.4268 13.7034 19.0622C13.7034 19.6976 13.1904 20.2106 12.5551 20.2106ZM19.445 20.2106C18.8096 20.2106 18.2967 19.6976 18.2967 19.0622C18.2967 18.4268 18.8096 17.9139 19.445 17.9139C20.0804 17.9139 20.5933 18.4268 20.5933 19.0622C20.5933 19.6976 20.0804 20.2106 19.445 20.2106ZM20.5933 15.6173H11.4067V11.7895H20.5933V15.6173Z" fill="#282828"/>
</g>
<defs>
<clipPath id="clip0_4333_59249">
<rect width="14.5455" height="14.5455" fill="white" transform="translate(8.72729 8.72729)"/>
</clipPath>
</defs>
</svg>
