<svg width="32" height="32" viewBox="0 0 32 32" fill="none" xmlns="http://www.w3.org/2000/svg">
<path d="M32 16C32 24.8366 24.8366 32 16 32C7.16344 32 0 24.8366 0 16C0 7.16344 7.16344 0 16 0C24.8366 0 32 7.16344 32 16Z" fill="#FFDD66"/>
<g clip-path="url(#clip0_4333_59221)">
<path d="M12.8183 8.72729C14.0737 8.72729 15.091 9.9482 15.091 11.4546C15.091 12.6973 14.3937 13.7346 13.4464 14.0627L14.1755 21.7792C14.1801 21.8218 14.1819 21.8655 14.1819 21.9091C14.1819 22.6618 13.571 23.2727 12.8183 23.2727C12.0655 23.2727 11.4546 22.6618 11.4546 21.9091C11.4546 21.8573 11.4574 21.8055 11.4637 21.7554L12.321 14.1118C11.3055 13.8391 10.5455 12.7555 10.5455 11.4546C10.5455 9.9482 11.5628 8.72729 12.8183 8.72729Z" fill="#282828"/>
<path d="M20.5454 9.18184C20.5454 8.93093 20.7491 8.72729 21 8.72729C21.2509 8.72729 21.4545 8.93093 21.4545 9.18184V11.9091C21.4545 12.9418 20.7573 13.8064 19.8118 14.0818L20.539 21.7792C20.5436 21.8218 20.5454 21.8655 20.5454 21.9091C20.5454 22.6618 19.9345 23.2727 19.1818 23.2727C18.4291 23.2727 17.8181 22.6618 17.8181 21.9091C17.8181 21.8573 17.8208 21.8055 17.8263 21.7554L18.6827 14.1227C17.6691 13.8946 16.9091 12.99 16.9091 11.9091V9.18184C16.9091 8.93093 17.1127 8.72729 17.3636 8.72729C17.6145 8.72729 17.8181 8.93093 17.8181 9.18184V11.4546C17.8181 11.7055 18.0218 11.9091 18.2727 11.9091C18.5236 11.9091 18.7272 11.7055 18.7272 11.4546V9.18184C18.7272 8.93093 18.9309 8.72729 19.1818 8.72729C19.4327 8.72729 19.6363 8.93093 19.6363 9.18184V11.4546C19.6363 11.7055 19.84 11.9091 20.0909 11.9091C20.3418 11.9091 20.5454 11.7055 20.5454 11.4546V9.18184Z" fill="#282828"/>
</g>
<defs>
<clipPath id="clip0_4333_59221">
<rect width="14.5455" height="14.5455" fill="white" transform="translate(8.72729 8.72729)"/>
</clipPath>
</defs>
</svg>
