<svg width="32" height="32" viewBox="0 0 32 32" fill="none" xmlns="http://www.w3.org/2000/svg">
<path d="M32 16C32 24.8366 24.8366 32 16 32C7.16344 32 0 24.8366 0 16C0 7.16344 7.16344 0 16 0C24.8366 0 32 7.16344 32 16Z" fill="#FFDD66"/>
<g clip-path="url(#clip0_4333_59241)">
<path d="M17.0906 8.72729C19.7515 8.72729 21.8904 10.7913 22.416 13.3578H14.5657L16.0044 9.0193C16.0622 8.84496 16.2251 8.72729 16.4089 8.72729H17.0906Z" fill="#282828"/>
<path fill-rule="evenodd" clip-rule="evenodd" d="M22.5309 14.21C22.5402 14.3499 22.545 14.4907 22.5451 14.6322C22.5451 14.6408 22.5453 14.6482 22.5451 14.6555C22.5437 14.7419 22.5025 14.8276 21.6913 17.0212C21.4286 17.7526 20.6061 18.2439 19.6435 18.2439H18.1747L18.5726 19.2384C19.8119 19.0294 20.9259 19.9897 20.9259 21.2268C20.9259 21.7654 20.7174 22.2756 20.3388 22.6636C19.5461 23.4758 18.2714 23.4756 17.4791 22.6636C17.2022 22.3798 17.0168 22.0306 16.9368 21.6529H15.4266C15.2344 22.5609 14.431 23.2722 13.4545 23.2722C12.3435 23.2722 11.4375 22.3456 11.4375 21.2268C11.4375 19.9898 12.5513 19.0294 13.7908 19.2384L14.1887 18.2439H12.7199C11.7563 18.2439 10.933 17.7516 10.6713 17.0188C10.4973 16.5318 10.3614 16.1513 10.2551 15.8537C9.9237 14.9257 9.88017 14.8039 9.86978 14.7735C9.86898 14.7712 9.86864 14.7705 9.86864 14.7705C9.86693 14.7668 9.86597 14.7629 9.22378 12.6758C9.1225 12.3467 8.78709 12.1077 8.42625 12.1077C8.19091 12.1077 8.00012 11.9169 8.00012 11.6816C8.00012 11.4463 8.19091 11.2555 8.42625 11.2555C9.16349 11.2555 9.82643 11.7365 10.0384 12.4252L10.5875 14.21H22.5309ZM15.4258 20.8006H16.9376C17.049 20.2849 17.3579 19.8417 17.7814 19.5552L17.2568 18.2439H15.1066L14.582 19.5552C15.0055 19.8417 15.3143 20.2849 15.4258 20.8006Z" fill="#282828"/>
</g>
<defs>
<clipPath id="clip0_4333_59241">
<rect width="14.5455" height="14.5455" fill="white" transform="translate(8 8.72729)"/>
</clipPath>
</defs>
</svg>
