<svg width="17" height="14" viewBox="0 0 17 14" fill="none" xmlns="http://www.w3.org/2000/svg">
<path fill-rule="evenodd" clip-rule="evenodd" d="M14.0671 12.8826C14.0471 13.1134 13.9619 13.3326 13.8228 13.5118C13.6836 13.691 13.4968 13.8221 13.2864 13.8881C13.076 13.9542 12.8518 13.9521 12.6425 13.8822C12.4332 13.8124 12.2485 13.6779 12.1123 13.4961C10.9152 12.4905 9.04837 11.0443 9.04837 11.0443C9.04837 11.0443 7.69749 13.5564 7.45588 13.8139C7.37613 13.8849 7.28332 13.9375 7.18321 13.9683C7.08309 13.9992 6.97785 14.0076 6.87447 13.9931C6.77108 13.9786 6.67175 13.9414 6.58276 13.884C6.49376 13.8265 6.41708 13.7501 6.35767 13.6596C6.34472 13.6216 6.33382 13.5829 6.32483 13.5437L7.07154 9.53996L12.4748 3.93461L5.10569 8.37551C5.10569 8.37551 1.77813 7.32474 1.28393 7.11946C1.15645 7.04592 1.05132 6.93571 0.98069 6.80165C0.910064 6.66759 0.876926 6.51515 0.884971 6.36198C0.893016 6.2088 0.941904 6.06117 1.02614 5.93618C1.11037 5.81119 1.22648 5.71395 1.36088 5.65575C2.06374 5.27765 14.4625 0.276552 14.8798 0.147813C15.2971 0.0190735 16.3954 -0.316114 16.2746 0.812382C16.1538 1.94088 14.188 12.2632 14.0671 12.8826Z" fill="#202020"/>
</svg>
