<svg width="88" height="88" viewBox="0 0 88 88" fill="none" xmlns="http://www.w3.org/2000/svg">
<path d="M2.60907 10.2269C3.03212 6.20795 6.20795 3.03212 10.2269 2.60907L26.0756 0.940792C37.9923 -0.313598 50.0077 -0.313597 61.9244 0.940792L77.7731 2.60907C81.7921 3.03212 84.9679 6.20795 85.3909 10.2269L87.0592 26.0756C88.3136 37.9923 88.3136 50.0077 87.0592 61.9244L85.3909 77.7731C84.9679 81.7921 81.792 84.9679 77.773 85.3909L61.9244 87.0592C50.0077 88.3136 37.9923 88.3136 26.0756 87.0592L10.2269 85.3909C6.20795 84.9679 3.03212 81.792 2.60907 77.773L0.940792 61.9244C-0.313598 50.0077 -0.313597 37.9923 0.940792 26.0756L2.60907 10.2269Z" fill="#FFDD66"/>
<g clip-path="url(#clip0_8404_983)">
<path d="M52.7319 68.3367C52.7319 69.4758 51.8085 70.3992 50.6694 70.3992H25.9195C24.7804 70.3992 23.857 69.4758 23.857 68.3367V37.2212L21.9547 38.5674C21.0249 39.2254 19.7376 39.0051 19.0798 38.0752C18.4218 37.1453 18.6421 35.8582 19.572 35.2003L43.9094 17.9785C44.6233 17.4733 45.5782 17.4733 46.292 17.9785L70.6294 35.2003C71.5593 35.8582 71.7797 37.1454 71.1216 38.0752C70.7197 38.6432 70.0828 38.9464 69.4363 38.9465C69.0243 38.9465 68.6085 38.8236 68.2466 38.5674L66.3443 37.2212V45.0306C66.3443 46.1697 65.4209 47.0931 64.2818 47.0931C63.1427 47.0931 62.2193 46.1697 62.2193 45.0306V34.3572C62.2193 34.3393 62.2216 34.322 62.222 34.3041L45.1007 22.1887L27.9793 34.3041C27.9797 34.322 27.982 34.3393 27.982 34.3572V66.2743H50.6694C51.8085 66.2743 52.7319 67.1976 52.7319 68.3367ZM61.4974 66.2743C60.3583 66.2743 59.4349 67.1976 59.4349 68.3367C59.4349 69.4758 60.3583 70.3992 61.4974 70.3992C62.6365 70.3992 63.5599 69.4758 63.5599 68.3367C63.5599 67.1976 62.6364 66.2743 61.4974 66.2743ZM70.702 53.5068C65.1611 49.2096 57.4213 49.2096 51.8804 53.5068C50.9802 54.2049 50.8165 55.5005 51.5146 56.4006C52.2126 57.3007 53.5083 57.4644 54.4083 56.7664C58.4608 53.6235 64.1215 53.6235 68.174 56.7664C68.55 57.058 68.9949 57.1992 69.4366 57.1992C70.0522 57.1992 70.6614 56.9247 71.0678 56.4006C71.7658 55.5004 71.6021 54.2049 70.702 53.5068ZM55.3213 60.5608C54.5018 61.3519 54.4787 62.6577 55.2697 63.4772C56.0608 64.2966 57.3665 64.3198 58.1861 63.5288C59.9562 61.8201 62.6261 61.8201 64.3963 63.5288C64.7966 63.9152 65.3127 64.1073 65.8284 64.1073C66.3685 64.1073 66.908 63.8964 67.3127 63.4772C68.1038 62.6576 68.0807 61.3519 67.2612 60.5608C63.9134 57.3297 58.6688 57.3297 55.3213 60.5608Z" fill="#282828"/>
</g>
<defs>
<clipPath id="clip0_8404_983">
<rect width="52.8" height="52.8" fill="white" transform="translate(18.7 17.5996)"/>
</clipPath>
</defs>
</svg>
