<svg width="20" height="20" viewBox="0 0 20 20" fill="none" xmlns="http://www.w3.org/2000/svg">
<path fill-rule="evenodd" clip-rule="evenodd" d="M17.8252 3.42821C18.6819 3.65887 19.3574 4.33407 19.5879 5.19065C20.0164 6.75522 19.9999 10.0165 19.9999 10.0165C19.9999 10.0165 19.9999 13.2611 19.5881 14.8258C19.3574 15.6823 18.682 16.3576 17.8252 16.5881C16.2602 17 9.99996 17 9.99996 17C9.99996 17 3.75609 17 2.17467 16.5718C1.3179 16.3411 0.642545 15.6658 0.411833 14.8094C0 13.2611 0 10 0 10C0 10 0 6.75522 0.411833 5.19065C0.642392 4.33422 1.33438 3.6424 2.17452 3.41189C3.73961 3 9.99981 3 9.99981 3C9.99981 3 16.2602 3 17.8252 3.42821ZM13.2124 9.99999L8.00659 12.9977V7.00233L13.2124 9.99999Z" fill="#282828"/>
</svg>
