<svg width="120" height="40" viewBox="0 0 120 40" fill="none" xmlns="http://www.w3.org/2000/svg">
<g clip-path="url(#clip0_1_517)">
<path d="M110.444 0.00013H9.56145C9.19372 0.00013 8.8304 0.00013 8.46364 0.00213C8.15663 0.00413 7.85207 0.00994 7.54211 0.01483C6.86874 0.0227318 6.19695 0.0818063 5.53259 0.19154C4.86915 0.303663 4.2265 0.515046 3.62637 0.81854C3.02697 1.1246 2.47929 1.5223 2.00318 1.9972C1.52457 2.47077 1.12561 3.01815 0.82165 3.61829C0.516847 4.21724 0.305496 4.85907 0.194896 5.52161C0.083244 6.18332 0.0231632 6.85265 0.0151925 7.52361C0.00588648 7.83021 0.00490373 8.13783 0 8.44447V31.5587C0.00490373 31.8692 0.00588648 32.17 0.0151925 32.4806C0.0231657 33.1516 0.0832464 33.8209 0.194896 34.4825C0.30519 35.1455 0.516554 35.7877 0.82165 36.3868C1.12548 36.985 1.52449 37.5302 2.00318 38.0011C2.47748 38.4781 3.02552 38.8761 3.62637 39.1798C4.2265 39.4841 4.86908 39.6968 5.53259 39.8106C6.19707 39.9195 6.86879 39.9786 7.54211 39.9874C7.85207 39.9942 8.15663 39.9981 8.46364 39.9981C8.83039 40.0001 9.19374 40.0001 9.56145 40.0001H110.444C110.804 40.0001 111.171 40.0001 111.531 39.9981C111.837 39.9981 112.15 39.9942 112.455 39.9874C113.128 39.9791 113.798 39.92 114.461 39.8106C115.127 39.696 115.772 39.4834 116.375 39.1798C116.975 38.8759 117.522 38.478 117.996 38.0011C118.474 37.5284 118.874 36.9836 119.181 36.3868C119.484 35.7872 119.693 35.1451 119.802 34.4825C119.914 33.8208 119.976 33.1516 119.988 32.4806C119.992 32.17 119.992 31.8692 119.992 31.5587C120 31.1954 120 30.8341 120 30.4649V9.53626C120 9.17005 120 8.80677 119.992 8.44447C119.992 8.13783 119.992 7.83021 119.988 7.52357C119.976 6.85255 119.914 6.18337 119.802 5.52157C119.693 4.85941 119.484 4.21763 119.181 3.61825C118.562 2.41533 117.581 1.43616 116.375 0.81845C115.772 0.515697 115.127 0.30437 114.461 0.19145C113.798 0.0812328 113.128 0.0221378 112.455 0.01469C112.15 0.00981 111.837 0.00395 111.531 0.002C111.171 0 110.804 0 110.444 0V0.00013Z" fill="#A6A6A6"/>
<path d="M8.46856 39.125C8.16303 39.125 7.86487 39.1211 7.56174 39.1143C6.93376 39.1061 6.30725 39.0516 5.68735 38.9512C5.10932 38.8519 4.54937 38.6673 4.02596 38.4033C3.50735 38.1415 3.03433 37.7983 2.62504 37.3867C2.20981 36.98 1.86412 36.5082 1.60166 35.9902C1.33631 35.4688 1.15267 34.9099 1.05714 34.333C0.953972 33.7131 0.898156 33.0863 0.890169 32.458C0.883812 32.2471 0.875488 31.5449 0.875488 31.5449V8.44434C0.875488 8.44434 0.884353 7.75293 0.89022 7.5498C0.897867 6.92248 0.953358 6.29665 1.05621 5.67773C1.15192 5.09925 1.3357 4.53875 1.6012 4.01563C1.8627 3.49794 2.20647 3.02586 2.61919 2.61768C3.03145 2.20562 3.50597 1.8606 4.02547 1.59521C4.54767 1.33209 5.10657 1.14873 5.68343 1.05127C6.30537 0.949836 6.93405 0.894996 7.5642 0.88721L8.46906 0.875H111.526L112.442 0.8877C113.066 0.895099 113.689 0.94945 114.305 1.05029C114.888 1.14898 115.453 1.33362 115.981 1.59814C117.022 2.13299 117.869 2.97916 118.403 4.01807C118.664 4.53758 118.845 5.09351 118.939 5.66699C119.044 6.29099 119.102 6.92174 119.114 7.5542C119.117 7.8374 119.117 8.1416 119.117 8.44434C119.125 8.81934 119.125 9.17627 119.125 9.53613V30.4648C119.125 30.8281 119.125 31.1826 119.117 31.54C119.117 31.8652 119.117 32.1631 119.113 32.4697C119.101 33.0909 119.044 33.7104 118.941 34.3232C118.848 34.9043 118.665 35.4675 118.4 35.9932C118.136 36.5056 117.792 36.9733 117.381 37.3789C116.972 37.7927 116.498 38.1379 115.978 38.4014C115.451 38.6674 114.887 38.8527 114.305 38.9512C113.686 39.0522 113.059 39.1067 112.431 39.1143C112.137 39.1211 111.83 39.125 111.531 39.125L110.444 39.127L8.46856 39.125Z" fill="black"/>
<path d="M24.8384 20.3008C24.8492 19.4662 25.0715 18.6478 25.4847 17.9218C25.8978 17.1959 26.4885 16.5859 27.2015 16.1488C26.7485 15.5036 26.1509 14.9727 25.4561 14.5981C24.7614 14.2236 23.9886 14.0157 23.1992 13.9911C21.5152 13.8148 19.8827 14.9959 19.0246 14.9959C18.1499 14.9959 16.8287 14.0086 15.406 14.0378C14.4857 14.0674 13.5889 14.3343 12.8028 14.8123C12.0167 15.2904 11.3682 15.9633 10.9205 16.7656C8.98105 20.1141 10.4277 25.0351 12.2855 27.7417C13.215 29.0671 14.3013 30.5475 15.7228 30.495C17.1137 30.4375 17.6332 29.6105 19.3122 29.6105C20.9756 29.6105 21.463 30.495 22.9133 30.4616C24.4058 30.4375 25.3462 29.1304 26.2431 27.7925C26.911 26.8481 27.4249 25.8044 27.7658 24.7C26.8987 24.3343 26.1587 23.7221 25.6381 22.9398C25.1175 22.1575 24.8394 21.2397 24.8384 20.3008Z" fill="white"/>
<path d="M22.0992 12.2108C22.913 11.2366 23.3139 9.98445 23.2168 8.72021C21.9735 8.85044 20.825 9.44299 20.0002 10.3798C19.597 10.8375 19.2881 11.3699 19.0913 11.9467C18.8945 12.5235 18.8136 13.1333 18.8533 13.7412C19.4752 13.7476 20.0904 13.6132 20.6527 13.3481C21.2149 13.083 21.7095 12.6942 22.0992 12.2108Z" fill="white"/>
<path d="M42.421 27.1397H37.6743L36.5344 30.4961H34.5239L39.0199 18.0781H41.1088L45.6047 30.4961H43.56L42.421 27.1397ZM38.166 25.5908H41.9285L40.0737 20.1436H40.0218L38.166 25.5908Z" fill="white"/>
<path d="M55.3145 25.9699C55.3145 28.7834 53.8044 30.591 51.5256 30.591C50.9483 30.6211 50.3742 30.4885 49.869 30.2084C49.3638 29.9283 48.9479 29.5119 48.6689 29.007H48.6258V33.4914H46.7622V21.4426H48.5661V22.9485H48.6004C48.8922 22.446 49.3151 22.0318 49.8241 21.7499C50.3332 21.4681 50.9093 21.3291 51.4913 21.3479C53.7956 21.3479 55.3145 23.1643 55.3145 25.9699ZM53.399 25.9699C53.399 24.1369 52.449 22.9319 50.9997 22.9319C49.5758 22.9319 48.618 24.1623 48.618 25.9699C48.618 27.7942 49.5758 29.0158 50.9997 29.0158C52.4491 29.0158 53.399 27.8196 53.399 25.9699Z" fill="white"/>
<path d="M65.3074 25.9699C65.3074 28.7834 63.7973 30.591 61.5185 30.591C60.9412 30.6211 60.3671 30.4885 59.8619 30.2084C59.3567 29.9283 58.9408 29.5119 58.6619 29.007H58.6187V33.4914H56.7551V21.4426H58.559V22.9484H58.5933C58.885 22.446 59.308 22.0318 59.817 21.7499C60.3261 21.4681 60.9022 21.3291 61.4842 21.3479C63.7885 21.3479 65.3074 23.1643 65.3074 25.9699ZM63.3919 25.9699C63.3919 24.1369 62.442 22.9318 60.9926 22.9318C59.5687 22.9318 58.6109 24.1623 58.6109 25.9699C58.6109 27.7942 59.5687 29.0158 60.9926 29.0158C62.442 29.0158 63.3919 27.8195 63.3919 25.9699H63.3919Z" fill="white"/>
<path d="M71.9116 27.0362C72.0497 28.2676 73.2494 29.0762 74.8887 29.0762C76.4595 29.0762 77.5896 28.2676 77.5896 27.1572C77.5896 26.1934 76.908 25.6162 75.2941 25.2207L73.6803 24.833C71.3936 24.2822 70.332 23.2158 70.332 21.4854C70.332 19.3428 72.2044 17.8711 74.8632 17.8711C77.4946 17.8711 79.2985 19.3428 79.3592 21.4854H77.478C77.3653 20.2461 76.3381 19.4981 74.8368 19.4981C73.3355 19.4981 72.3082 20.2549 72.3082 21.3565C72.3082 22.2344 72.9644 22.751 74.5694 23.1465L75.9414 23.4824C78.4964 24.0849 79.558 25.1084 79.558 26.9248C79.558 29.248 77.7022 30.7031 74.7506 30.7031C71.989 30.7031 70.1244 29.2822 70.0039 27.0361L71.9116 27.0362Z" fill="white"/>
<path d="M83.5802 19.2998V21.4424H85.3067V22.9141H83.5802V27.9053C83.5802 28.6807 83.9259 29.042 84.6849 29.042C84.8898 29.0384 85.0945 29.0241 85.2979 28.999V30.4619C84.9567 30.5255 84.6099 30.5543 84.2628 30.5478C82.4246 30.5478 81.7078 29.8593 81.7078 28.1035V22.9141H80.3877V21.4424H81.7078V19.2998H83.5802Z" fill="white"/>
<path d="M86.3066 25.9697C86.3066 23.1211 87.9891 21.3311 90.6126 21.3311C93.245 21.3311 94.9196 23.1211 94.9196 25.9697C94.9196 28.8262 93.2538 30.6084 90.6126 30.6084C87.9724 30.6084 86.3066 28.8262 86.3066 25.9697ZM93.0207 25.9697C93.0207 24.0156 92.1227 22.8623 90.6126 22.8623C89.1025 22.8623 88.2055 24.0244 88.2055 25.9697C88.2055 27.9316 89.1025 29.0762 90.6126 29.0762C92.1227 29.0762 93.0207 27.9316 93.0207 25.9697H93.0207Z" fill="white"/>
<path d="M96.4561 21.4425H98.2335V22.9835H98.2766C98.3969 22.5022 98.6796 22.0769 99.0773 21.779C99.475 21.4811 99.9634 21.3288 100.46 21.3478C100.675 21.347 100.889 21.3703 101.099 21.4171V23.1554C100.828 23.0728 100.545 23.0348 100.262 23.0431C99.9909 23.0321 99.721 23.0797 99.4704 23.1826C99.2199 23.2855 98.9946 23.4412 98.8102 23.6391C98.6257 23.837 98.4863 24.0724 98.4016 24.3291C98.317 24.5857 98.289 24.8576 98.3197 25.1261V30.4962H96.4561L96.4561 21.4425Z" fill="white"/>
<path d="M109.691 27.8369C109.441 29.4805 107.836 30.6084 105.782 30.6084C103.141 30.6084 101.501 28.8437 101.501 26.0127C101.501 23.1729 103.15 21.3311 105.704 21.3311C108.216 21.3311 109.795 23.0518 109.795 25.7969V26.4336H103.383V26.5459C103.353 26.8791 103.395 27.2148 103.505 27.5306C103.616 27.8464 103.793 28.1352 104.024 28.3778C104.255 28.6203 104.535 28.8111 104.845 28.9374C105.156 29.0637 105.49 29.1226 105.825 29.1103C106.265 29.1515 106.707 29.0498 107.085 28.8203C107.463 28.5909 107.756 28.246 107.922 27.8369L109.691 27.8369ZM103.392 25.1348H107.931C107.947 24.8352 107.902 24.5354 107.797 24.2541C107.692 23.9729 107.53 23.7164 107.321 23.5006C107.111 23.2849 106.86 23.1145 106.582 23.0003C106.303 22.8861 106.004 22.8305 105.704 22.8369C105.4 22.8351 105.099 22.8933 104.819 23.008C104.538 23.1227 104.282 23.2918 104.067 23.5054C103.853 23.7191 103.682 23.973 103.566 24.2527C103.45 24.5323 103.391 24.8321 103.392 25.1348V25.1348Z" fill="white"/>
<path d="M36.8415 11.2534H37.6416C37.7794 11.2705 37.9192 11.259 38.0522 11.2195C38.1852 11.1801 38.3086 11.1136 38.4146 11.0242C38.5206 10.9349 38.6069 10.8246 38.668 10.7003C38.7291 10.576 38.7638 10.4405 38.7698 10.3022C38.7698 9.75193 38.3546 9.39646 37.6504 9.39646C37.5093 9.3768 37.3657 9.38553 37.228 9.42214C37.0904 9.45875 36.9615 9.52249 36.8489 9.60961C36.7363 9.69672 36.6424 9.80544 36.5727 9.92935C36.503 10.0533 36.4589 10.1898 36.443 10.331H35.5645C35.5796 10.0747 35.6475 9.82428 35.7639 9.59527C35.8803 9.36626 36.0427 9.16359 36.241 8.99989C36.4394 8.83618 36.6694 8.71494 36.9167 8.64372C37.1641 8.5725 37.4235 8.55282 37.6788 8.58591C38.8569 8.58591 39.6864 9.24362 39.6864 10.1904C39.6892 10.5076 39.5828 10.8161 39.385 11.0645C39.1871 11.3129 38.9098 11.486 38.5994 11.5551V11.6255C38.9674 11.6417 39.314 11.8027 39.5634 12.073C39.8128 12.3434 39.9447 12.7013 39.9303 13.0683C39.903 13.3322 39.8232 13.588 39.6956 13.8208C39.5679 14.0535 39.395 14.2585 39.1868 14.4237C38.9787 14.5889 38.7396 14.7111 38.4835 14.7829C38.2274 14.8548 37.9595 14.875 37.6955 14.8423C37.4309 14.8782 37.1618 14.8607 36.9042 14.7907C36.6466 14.7208 36.4058 14.5998 36.196 14.4351C35.9863 14.2703 35.812 14.0651 35.6834 13.8317C35.5549 13.5983 35.4749 13.3415 35.448 13.0766H36.3401C36.394 13.6474 36.9199 14.0156 37.6955 14.0156C38.4711 14.0156 38.9774 13.6021 38.9774 13.0191C38.9774 12.4277 38.5005 12.0635 37.6671 12.0635H36.8415V11.2534Z" fill="white"/>
<path d="M40.9438 13.4243C40.9438 12.6138 41.55 12.1465 42.6234 12.0801L43.8465 12.0098V11.6211C43.8465 11.1455 43.5321 10.877 42.922 10.877C42.4246 10.877 42.0808 11.0591 41.9809 11.3774H41.1182C41.2092 10.604 41.9398 10.1079 42.9642 10.1079C44.0962 10.1079 44.7347 10.6699 44.7347 11.6211V14.6977H43.8759V14.0649H43.8054C43.6623 14.2919 43.4613 14.477 43.223 14.6012C42.9847 14.7254 42.7176 14.7843 42.449 14.7719C42.2595 14.7916 42.0679 14.7714 41.8866 14.7127C41.7053 14.654 41.5384 14.5581 41.3966 14.4311C41.2548 14.3042 41.1412 14.149 41.0633 13.9756C40.9853 13.8021 40.9446 13.6144 40.9438 13.4243ZM43.8465 13.0395V12.6631L42.7438 12.7334C42.1219 12.7749 41.8399 12.9858 41.8399 13.3828C41.8399 13.7881 42.1924 14.0239 42.6772 14.0239C42.8193 14.0383 42.9627 14.024 43.0991 13.9819C43.2355 13.9398 43.362 13.8708 43.4711 13.7789C43.5802 13.6871 43.6697 13.5743 43.7342 13.4473C43.7987 13.3202 43.8369 13.1816 43.8465 13.0395Z" fill="white"/>
<path d="M47.0997 10.9429V14.6978H46.2085V10.1948H49.1817V10.9428L47.0997 10.9429Z" fill="white"/>
<path d="M54.5826 12.4443C54.5826 13.875 53.8569 14.7719 52.717 14.7719C52.4372 14.791 52.1578 14.7299 51.9116 14.5959C51.6654 14.4619 51.4627 14.2606 51.3274 14.0156H51.2569V16.1948H50.3657V10.1948H51.2236V10.939H51.2902C51.4279 10.6854 51.6332 10.4747 51.8835 10.3302C52.1337 10.1857 52.4191 10.113 52.7082 10.1201C53.8569 10.1201 54.5826 11.0131 54.5826 12.4443ZM53.666 12.4443C53.666 11.4931 53.2145 10.9184 52.4595 10.9184C51.7094 10.9184 51.2403 11.5053 51.2403 12.4482C51.2403 13.3867 51.7093 13.9741 52.4556 13.9741C53.2145 13.9741 53.666 13.3994 53.666 12.4443Z" fill="white"/>
<path d="M55.7696 16.3106V15.5454C55.8661 15.5576 55.9632 15.5632 56.0604 15.562C56.2503 15.576 56.4387 15.5197 56.5894 15.4037C56.7402 15.2877 56.8426 15.1203 56.8772 14.9336L56.9438 14.7144L55.3093 10.1948H56.2798L57.4119 13.7715H57.4824L58.6106 10.1948H59.5556L57.8722 14.8838C57.4864 15.9795 57.0594 16.3311 56.1388 16.3311C56.0644 16.3311 55.8529 16.3228 55.7696 16.3106Z" fill="white"/>
<path d="M60.2498 13.42H61.137C61.2242 13.817 61.5973 14.024 62.1193 14.024C62.7127 14.024 63.077 13.7633 63.077 13.358C63.077 12.9239 62.7499 12.7169 62.1193 12.7169H61.4435V12.0265H62.1075C62.6461 12.0265 62.9203 11.8199 62.9203 11.4435C62.9203 11.1129 62.6549 10.8605 62.1075 10.8605C61.609 10.8605 61.2447 11.0714 61.1869 11.4269H60.3281C60.3923 11.0184 60.6147 10.6514 60.9475 10.4048C61.2802 10.1581 61.6968 10.0516 62.1075 10.108C63.1808 10.108 63.7948 10.5919 63.7948 11.3527C63.7999 11.5645 63.7318 11.7717 63.602 11.9395C63.4722 12.1073 63.2886 12.2256 63.0819 12.2746V12.3449C63.328 12.3765 63.554 12.4972 63.7168 12.6839C63.8796 12.8707 63.968 13.1106 63.9652 13.358C63.9652 14.214 63.2347 14.7804 62.1193 14.7804C61.1331 14.7804 60.332 14.3297 60.2498 13.42Z" fill="white"/>
<path d="M65.2485 14.6978V10.1948H66.1319V13.292H66.2024L68.2834 10.1948H69.1667V14.6978H68.2834V11.584H68.2168L66.1319 14.6978L65.2485 14.6978Z" fill="white"/>
<path d="M74.033 10.9428H72.611V14.6977H71.7189V10.9428H70.2969V10.1948H74.033V10.9428Z" fill="white"/>
<path d="M78.8338 13.482C78.7124 13.8935 78.4498 14.2494 78.092 14.4875C77.7342 14.7257 77.3038 14.8309 76.8762 14.7847C76.5787 14.7926 76.283 14.7358 76.0098 14.6182C75.7365 14.5007 75.4922 14.3253 75.2937 14.1041C75.0952 13.883 74.9474 13.6214 74.8605 13.3376C74.7735 13.0538 74.7496 12.7545 74.7903 12.4605C74.7506 12.1656 74.775 11.8657 74.8618 11.581C74.9485 11.2964 75.0955 11.0336 75.293 10.8105C75.4904 10.5874 75.7335 10.4093 76.006 10.2881C76.2785 10.1669 76.5739 10.1054 76.8723 10.108C78.1287 10.108 78.8877 10.964 78.8877 12.378V12.6881H75.6991V12.7379C75.6849 12.9032 75.7056 13.0696 75.7599 13.2264C75.8141 13.3832 75.9006 13.527 76.0138 13.6485C76.1271 13.77 76.2646 13.8665 76.4175 13.9318C76.5704 13.9972 76.7353 14.0299 76.9016 14.0279C77.1147 14.0533 77.3305 14.0149 77.5216 13.9177C77.7127 13.8205 77.8705 13.6689 77.975 13.482L78.8338 13.482ZM75.699 12.0308H77.9788C77.9901 11.8798 77.9696 11.7281 77.9185 11.5854C77.8675 11.4427 77.7871 11.3123 77.6825 11.2024C77.578 11.0926 77.4515 11.0058 77.3113 10.9475C77.1711 10.8893 77.0202 10.861 76.8683 10.8643C76.7141 10.8623 76.5611 10.891 76.4183 10.9489C76.2754 11.0068 76.1457 11.0926 76.0367 11.2014C75.9277 11.3101 75.8416 11.4396 75.7836 11.582C75.7257 11.7245 75.6969 11.8771 75.6991 12.0308H75.699Z" fill="white"/>
<path d="M82.6118 10.1948H84.6478C85.5311 10.1948 86.0492 10.6411 86.0492 11.3398C86.0505 11.5615 85.9755 11.777 85.8366 11.9501C85.6978 12.1233 85.5035 12.2436 85.2863 12.291V12.3613C85.55 12.3779 85.7973 12.4949 85.9769 12.6881C86.1566 12.8813 86.2551 13.1359 86.2519 13.3994C86.2519 14.185 85.6594 14.6977 84.6684 14.6977H82.6118V10.1948ZM83.4952 10.877V12.043H84.3785C84.9171 12.043 85.1747 11.8364 85.1747 11.4556C85.1747 11.1045 84.9504 10.8769 84.4774 10.8769L83.4952 10.877ZM83.4952 12.6963V14.0156H84.5519C85.0787 14.0156 85.3608 13.7837 85.3608 13.3579C85.3608 12.9072 85.0415 12.6963 84.4402 12.6963L83.4952 12.6963Z" fill="white"/>
</g>
<defs>
<clipPath id="clip0_1_517">
<rect width="120" height="40" fill="white"/>
</clipPath>
</defs>
</svg>
