<svg width="74" height="74" viewBox="0 0 74 74" fill="none" xmlns="http://www.w3.org/2000/svg">
<path fill-rule="evenodd" clip-rule="evenodd" d="M37 74C57.4345 74 74 57.4345 74 37C74 16.5655 57.4345 0 37 0C16.5655 0 0 16.5655 0 37C0 57.4345 16.5655 74 37 74ZM32.992 29.1024L45.792 36.3024C46.0431 36.4448 46.2 36.7104 46.2 37C46.2 37.2895 46.0431 37.5551 45.792 37.6975L32.992 44.8975C32.8704 44.9663 32.7344 44.9999 32.6 44.9999C32.4608 44.9999 32.3216 44.9631 32.1968 44.8911C31.9504 44.7471 31.8 44.4847 31.8 44.1999V29.8C31.8 29.5152 31.9504 29.2528 32.1968 29.1088C32.4416 28.9664 32.744 28.9632 32.992 29.1024Z" fill="white"/>
</svg>
