<svg width="44" height="44" viewBox="0 0 44 44" fill="none" xmlns="http://www.w3.org/2000/svg">
<g clip-path="url(#clip0_4333_59181)">
<path d="M44 22C44 34.1503 34.1503 44 22 44C9.84974 44 0 34.1503 0 22C0 9.84974 9.84974 0 22 0C34.1503 0 44 9.84974 44 22Z" fill="#FFDD66"/>
<path d="M17.625 12C19.3513 12 20.75 13.6788 20.75 15.75C20.75 17.4587 19.7913 18.885 18.4887 19.3362L19.4913 29.9463C19.4975 30.005 19.5 30.065 19.5 30.125C19.5 31.16 18.66 32 17.625 32C16.59 32 15.75 31.16 15.75 30.125C15.75 30.0537 15.7538 29.9825 15.7625 29.9137L16.9412 19.4037C15.545 19.0287 14.5 17.5388 14.5 15.75C14.5 13.6788 15.8987 12 17.625 12Z" fill="#282828"/>
<path d="M28.25 12.625C28.25 12.28 28.53 12 28.875 12C29.22 12 29.5 12.28 29.5 12.625V16.375C29.5 17.795 28.5413 18.9838 27.2413 19.3625L28.2412 29.9463C28.2475 30.005 28.25 30.065 28.25 30.125C28.25 31.16 27.41 32 26.375 32C25.34 32 24.5 31.16 24.5 30.125C24.5 30.0537 24.5037 29.9825 24.5112 29.9137L25.6888 19.4187C24.295 19.105 23.25 17.8612 23.25 16.375V12.625C23.25 12.28 23.53 12 23.875 12C24.22 12 24.5 12.28 24.5 12.625V15.75C24.5 16.095 24.78 16.375 25.125 16.375C25.47 16.375 25.75 16.095 25.75 15.75V12.625C25.75 12.28 26.03 12 26.375 12C26.72 12 27 12.28 27 12.625V15.75C27 16.095 27.28 16.375 27.625 16.375C27.97 16.375 28.25 16.095 28.25 15.75V12.625Z" fill="#282828"/>
</g>
<defs>
<clipPath id="clip0_4333_59181">
<rect width="44" height="44" fill="white"/>
</clipPath>
</defs>
</svg>
