<svg width="44" height="44" viewBox="0 0 44 44" fill="none" xmlns="http://www.w3.org/2000/svg">
<g clip-path="url(#clip0_4333_59192)">
<path d="M44 22C44 34.1503 34.1503 44 22 44C9.84974 44 0 34.1503 0 22C0 9.84974 9.84974 0 22 0C34.1503 0 44 9.84974 44 22Z" fill="#FFDD66"/>
<g clip-path="url(#clip1_4333_59192)">
<path d="M23.4996 12C27.1583 12 30.0993 14.838 30.822 18.367H20.0278L22.0061 12.4015C22.0855 12.1618 22.3096 12 22.5622 12H23.4996Z" fill="#282828"/>
<path fill-rule="evenodd" clip-rule="evenodd" d="M30.98 19.5387C30.9928 19.7311 30.9995 19.9247 30.9996 20.1193C30.9996 20.1312 30.9998 20.1412 30.9996 20.1513C30.9976 20.2701 30.941 20.388 29.8256 23.4041C29.4644 24.4099 28.3334 25.0854 27.0099 25.0854H24.9903L25.5374 26.4528C27.2414 26.1655 28.7732 27.4858 28.7732 29.1869C28.7732 29.9274 28.4865 30.629 27.9659 31.1624C26.876 32.2792 25.1233 32.2789 24.0338 31.1624C23.6531 30.7723 23.3982 30.2921 23.2882 29.7728H21.2116C20.9474 31.0212 19.8427 31.9993 18.5 31.9993C16.9724 31.9993 15.7267 30.7252 15.7267 29.1869C15.7267 27.486 17.2582 26.1654 18.9625 26.4528L19.5095 25.0854H17.49C16.1649 25.0854 15.0329 24.4084 14.6731 23.4009C14.4339 22.7312 14.247 22.208 14.1009 21.7988C13.6452 20.5229 13.5853 20.3553 13.571 20.3136C13.5699 20.3104 13.5694 20.3094 13.5694 20.3094C13.5671 20.3044 13.5658 20.299 12.6828 17.4292C12.5435 16.9767 12.0823 16.6482 11.5862 16.6482C11.2626 16.6482 11.0002 16.3858 11.0002 16.0622C11.0002 15.7386 11.2626 15.4763 11.5862 15.4763C12.5999 15.4763 13.5114 16.1377 13.8028 17.0846L14.5579 19.5387H30.98ZM21.2105 28.6009H23.2893C23.4425 27.8917 23.8672 27.2823 24.4495 26.8884L23.7282 25.0854H20.7716L20.0504 26.8884C20.6326 27.2823 21.0573 27.8917 21.2105 28.6009Z" fill="#282828"/>
</g>
</g>
<defs>
<clipPath id="clip0_4333_59192">
<rect width="44" height="44" fill="white"/>
</clipPath>
<clipPath id="clip1_4333_59192">
<rect width="20" height="20" fill="white" transform="translate(11 12)"/>
</clipPath>
</defs>
</svg>
