<svg width="30" height="40" viewBox="0 0 30 40" fill="none" xmlns="http://www.w3.org/2000/svg">
<path d="M0.720247 2.106C2.10625 0.00828872 5.02794 -0.629632 7.24602 0.681162L27.7732 12.8119C29.9912 14.1227 30.6658 16.8858 29.2798 18.9835C27.8937 21.0812 24.9721 21.7191 22.754 20.4084L2.22684 8.27763C0.00876433 6.96684 -0.66576 4.2037 0.720247 2.106Z" fill="#FFDD66"/>
<path d="M0.720247 21.0165C2.10625 18.9188 5.02794 18.2809 7.24602 19.5916L27.7732 31.7224C29.9912 33.0332 30.6658 35.7963 29.2798 37.894C27.8937 39.9917 24.9721 40.6296 22.754 39.3188L2.22684 27.1881C0.00876433 25.8773 -0.66576 23.1142 0.720247 21.0165Z" fill="#FFDD66"/>
</svg>
