<svg width="24" height="24" viewBox="0 0 24 24" fill="none" xmlns="http://www.w3.org/2000/svg">
<path d="M12 5.27273C12.2898 5.27273 12.5089 5.16042 12.6163 5.097C12.7364 5.02605 12.8367 4.94324 12.9097 4.87805C13.0546 4.74868 13.2076 4.5828 13.3427 4.43429C13.3793 4.39403 13.4164 4.35302 13.4542 4.31135C13.7173 4.02069 14.0095 3.69798 14.3634 3.37332C15.17 2.6335 16.1764 2 17.4545 2C19.365 2 20.7244 2.70648 21.6162 3.70982C22.5244 4.73156 23 6.12216 23 7.54545C23 9.59844 21.87 11.7837 19.8031 14.1362C17.8149 16.399 15.073 18.69 12 21.0203C8.92702 18.69 6.18507 16.399 4.19691 14.1362C2.13004 11.7837 1 9.59844 1 7.54545C1 6.12216 1.47556 4.73156 2.38377 3.70982C3.27563 2.70648 4.63499 2 6.54545 2C7.82358 2 8.82995 2.6335 9.63656 3.37332C9.99052 3.69798 10.2827 4.02069 10.5458 4.31135C10.5836 4.35302 10.6207 4.39403 10.6573 4.43429C10.7924 4.5828 10.9454 4.74868 11.0903 4.87805C11.1633 4.94324 11.2636 5.02605 11.3837 5.097C11.4911 5.16042 11.7102 5.27273 12 5.27273Z" stroke="#282828" stroke-width="2"/>
</svg>
