<svg width="20" height="20" viewBox="0 0 20 20" fill="none" xmlns="http://www.w3.org/2000/svg">
<path d="M10.0131 10.3168C12.96 10.3168 15.3681 8.00975 15.3681 5.15028C15.3513 2.30707 12.96 0 10.0131 0C7.06616 0 4.65809 2.30707 4.65809 5.16653C4.65809 8.00975 7.04932 10.3168 10.0131 10.3168ZM10.0131 3.02193C11.2424 3.02193 12.2359 3.9805 12.2359 5.16653C12.2359 6.33631 11.2424 7.29488 10.0131 7.29488C8.80065 7.29488 7.79027 6.33631 7.79027 5.16653C7.79027 3.9805 8.78381 3.02193 10.0131 3.02193Z" fill="#282828"/>
<path d="M12.1686 14.5248C13.2632 14.2811 14.3072 13.8749 15.2671 13.29C15.9912 12.8513 16.2269 11.909 15.7554 11.2104C15.3008 10.4955 14.3241 10.2843 13.6 10.7392C11.4108 12.0715 8.58173 12.0715 6.39258 10.7392C5.66847 10.2843 4.70861 10.4955 4.2371 11.2104C3.78243 11.909 4.00134 12.8513 4.72545 13.29C5.68531 13.8749 6.74621 14.2973 7.82395 14.5248L4.84333 17.4167C4.2371 18.0016 4.2371 18.9602 4.84333 19.5613C5.14644 19.8538 5.55059 20 5.95475 20C6.3589 20 6.76305 19.8538 7.06616 19.5613L9.99627 16.7181L12.9432 19.5613C13.5494 20.1462 14.543 20.1462 15.166 19.5613C15.7723 18.9764 15.7723 18.0179 15.166 17.4167L12.1686 14.5248Z" fill="#282828"/>
</svg>
