<svg width="44" height="44" viewBox="0 0 44 44" fill="none" xmlns="http://www.w3.org/2000/svg">
<g clip-path="url(#clip0_4333_59160)">
<path d="M44 22C44 34.1503 34.1503 44 22 44C9.84974 44 0 34.1503 0 22C0 9.84974 9.84974 0 22 0C34.1503 0 44 9.84974 44 22Z" fill="#FFDD66"/>
<path d="M21.9999 12C17.3473 12 13.5789 12.5263 13.5789 16.2105V26.7368C13.5789 27.6684 13.9894 28.4947 14.6315 29.0737V30.9474C14.6315 31.5263 15.1052 32 15.6841 32H16.7367C17.321 32 17.7894 31.5263 17.7894 30.9474V29.8948H26.2104V30.9474C26.2104 31.5263 26.6789 32 27.2631 32H28.3157C28.8946 32 29.3683 31.5263 29.3683 30.9474V29.0737C30.0104 28.4948 30.4209 27.6684 30.4209 26.7369V16.2105C30.421 12.5263 26.6526 12 21.9999 12ZM17.2631 27.7895C16.3894 27.7895 15.6841 27.0842 15.6841 26.2105C15.6841 25.3368 16.3894 24.6316 17.2631 24.6316C18.1368 24.6316 18.842 25.3368 18.842 26.2105C18.842 27.0842 18.1367 27.7895 17.2631 27.7895ZM26.7368 27.7895C25.8631 27.7895 25.1578 27.0842 25.1578 26.2105C25.1578 25.3368 25.8631 24.6316 26.7368 24.6316C27.6105 24.6316 28.3157 25.3368 28.3157 26.2105C28.3157 27.0842 27.6104 27.7895 26.7368 27.7895ZM28.3157 21.4737H15.6841V16.2105H28.3157V21.4737Z" fill="#282828"/>
</g>
<defs>
<clipPath id="clip0_4333_59160">
<rect width="44" height="44" fill="white"/>
</clipPath>
</defs>
</svg>
