<svg width="44" height="44" viewBox="0 0 44 44" fill="none" xmlns="http://www.w3.org/2000/svg">
<g clip-path="url(#clip0_4333_59204)">
<path d="M44 22C44 34.1503 34.1503 44 22 44C9.84974 44 0 34.1503 0 22C0 9.84974 9.84974 0 22 0C34.1503 0 44 9.84974 44 22Z" fill="#FFDD66"/>
<g clip-path="url(#clip1_4333_59204)">
<path fill-rule="evenodd" clip-rule="evenodd" d="M30.2057 13.08L32.1758 15.2342C32.3334 15.4116 32.4386 15.589 32.5436 15.7664L32.5699 15.7917C32.6487 15.9945 32.7012 16.1972 32.7012 16.4253C32.7012 16.6534 32.6487 16.8815 32.5699 17.0842C32.4911 17.287 32.3334 17.4897 32.1758 17.6418L32.0445 17.7685C31.8607 17.9459 31.6767 18.0726 31.4666 18.1486C31.2565 18.2246 31.02 18.2753 30.7836 18.2753C30.416 18.2753 30.1795 18.1486 29.9431 17.9966C29.8643 17.9459 29.7855 17.8952 29.7329 17.8698L29.2601 17.6924L28.8135 18.25L28.9448 27.8296C29.0499 27.7535 29.1551 27.6775 29.2601 27.5762C29.6015 27.3228 29.9431 27.0186 30.232 26.7145C30.4947 26.4358 30.8624 26.2584 31.2302 26.2329C31.5979 26.2076 31.992 26.2837 32.3071 26.5118L32.3859 26.5624C32.5436 26.6892 32.6749 26.8412 32.78 26.9933C32.885 27.1707 32.9638 27.3734 32.9901 27.6015C33.0164 27.8296 32.9901 28.0324 32.9113 28.2351C32.8325 28.4379 32.7275 28.6153 32.5962 28.7673L32.5699 28.7926C32.1758 29.1981 31.7556 29.5783 31.3353 29.9331C28.7347 31.9858 25.2937 33.0249 21.8526 32.9996C18.4115 32.9741 14.9966 31.8845 12.5012 29.7302C12.0809 29.3755 11.6869 28.97 11.3454 28.5645C11.0827 28.2604 10.9776 27.8803 11.0039 27.5001C11.0302 27.1454 11.1878 26.7652 11.503 26.5118L11.5555 26.4611C11.7131 26.3344 11.8708 26.2329 12.0546 26.1823C12.2385 26.1063 12.4486 26.081 12.6588 26.1063C12.8689 26.1316 13.0791 26.1823 13.2629 26.2584C13.4468 26.3344 13.6307 26.461 13.762 26.6131C13.9196 26.7905 14.0773 26.9426 14.2349 27.0947L14.2086 23.6734C14.2086 22.9384 14.3399 22.2795 14.6026 21.6459C14.8653 21.0124 15.2593 20.4548 15.8109 19.948C16.3363 19.4411 16.9405 19.061 17.5709 18.8075C18.2276 18.5541 18.9106 18.4274 19.6723 18.4527L22.9033 18.5034C22.7719 17.0842 22.9295 15.5383 23.7176 14.1698C24.637 12.5985 26.3443 11.3314 29.549 11.0019C29.8643 10.9766 30.1795 11.2047 30.2057 11.5088V11.5595V13.08ZM26.213 29.2742C26.1867 28.1084 25.6876 27.0186 24.8733 26.2584C24.0591 25.4727 22.9295 24.9659 21.6687 24.9659C20.4341 24.9659 19.3046 25.4727 18.464 26.2584C17.7022 26.9933 17.2031 28.007 17.1506 29.0968C17.8073 29.3755 18.5165 29.6036 19.252 29.7557C20.0926 29.9331 20.9857 30.0344 21.9051 30.0344C22.7457 30.0344 23.5337 29.9584 24.3217 29.8063C25.0046 29.6544 25.6088 29.4768 26.213 29.2742Z" fill="#282828"/>
</g>
</g>
<defs>
<clipPath id="clip0_4333_59204">
<rect width="44" height="44" fill="white"/>
</clipPath>
<clipPath id="clip1_4333_59204">
<rect width="22" height="22" fill="white" transform="translate(11 11)"/>
</clipPath>
</defs>
</svg>
