<svg width="44" height="44" viewBox="0 0 44 44" fill="none" xmlns="http://www.w3.org/2000/svg">
<g clip-path="url(#clip0_4333_59172)">
<path d="M44 22C44 34.1503 34.1503 44 22 44C9.84974 44 0 34.1503 0 22C0 9.84974 9.84974 0 22 0C34.1503 0 44 9.84974 44 22Z" fill="#FFDD66"/>
<g clip-path="url(#clip1_4333_59172)">
<path d="M25.3203 15.3203C25.3203 17.1541 23.8338 18.6406 22 18.6406C20.1662 18.6406 18.6797 17.1541 18.6797 15.3203C18.6797 13.4866 20.1662 12 22 12C23.8338 12 25.3203 13.4866 25.3203 15.3203Z" fill="#282828"/>
<path d="M22.0001 19.8124C22.8989 19.8124 23.7369 19.5469 24.4399 19.0903C25.217 19.3873 25.9376 19.8255 26.5641 20.3878L22.0001 22.0993L17.436 20.3878C18.0626 19.8255 18.7831 19.3873 19.5603 19.0903C20.2633 19.5469 21.1012 19.8124 22.0001 19.8124Z" fill="#282828"/>
<path d="M28.6406 24.1094C28.317 24.1094 28.0547 24.3717 28.0547 24.6953V26.2578C28.0547 26.5814 28.317 26.8438 28.6406 26.8438H29.0312C29.7863 26.8438 30.3984 26.2316 30.3984 25.4766C30.3984 24.7215 29.7863 24.1094 29.0312 24.1094H28.6406Z" fill="#282828"/>
<path d="M15.1641 21.6331C15.1641 21.4409 15.2583 21.261 15.4163 21.1515C15.5742 21.042 15.7758 21.0169 15.9557 21.0845L21.4141 23.1314V32.0001L15.5443 29.7989C15.3156 29.7132 15.1641 29.4946 15.1641 29.2503V28.0157H15.3594C16.3286 28.0157 17.1172 27.2272 17.1172 26.2579V24.6954C17.1172 23.7262 16.3286 22.9376 15.3594 22.9376H15.1641V21.6331Z" fill="#282828"/>
<path d="M26.8828 26.2579V24.6954C26.8828 23.7262 27.6714 22.9376 28.6406 22.9376H28.8359V21.6331C28.8359 21.4409 28.7417 21.261 28.5837 21.1515C28.4258 21.042 28.2241 21.0169 28.0443 21.0845L22.5859 23.1314V32.0001L28.4557 29.7989C28.6844 29.7132 28.8359 29.4946 28.8359 29.2503V28.0157H28.6406C27.6714 28.0157 26.8828 27.2272 26.8828 26.2579Z" fill="#282828"/>
<path d="M15.3594 24.1094C15.683 24.1094 15.9453 24.3717 15.9453 24.6953V26.2578C15.9453 26.5814 15.683 26.8438 15.3594 26.8438H14.9688C14.2137 26.8438 13.6016 26.2316 13.6016 25.4766C13.6016 24.7215 14.2137 24.1094 14.9688 24.1094H15.3594Z" fill="#282828"/>
</g>
</g>
<defs>
<clipPath id="clip0_4333_59172">
<rect width="44" height="44" fill="white"/>
</clipPath>
<clipPath id="clip1_4333_59172">
<rect width="20" height="20" fill="white" transform="translate(12 12)"/>
</clipPath>
</defs>
</svg>
