<svg width="16" height="23" viewBox="0 0 16 23" fill="none" xmlns="http://www.w3.org/2000/svg">
<path d="M9 15.7324C9.5978 15.3866 10 14.7403 10 14C10 12.8954 9.10457 12 8 12C6.89543 12 6 12.8954 6 14C6 14.7403 6.4022 15.3866 7 15.7324V19H9V15.7324Z" fill="#CDCDCD"/>
<path fill-rule="evenodd" clip-rule="evenodd" d="M2 8.20036V6C2 2.68629 4.68629 0 8 0C11.3137 0 14 2.68629 14 6V8.20033C15.1976 8.66285 16.0162 9.87044 15.91 11.2331L15.2087 20.2331C15.087 21.7948 13.7842 23 12.2178 23H3.78229C2.21583 23 0.913052 21.7948 0.791358 20.2331L0.0900595 11.2331C-0.0161168 9.87046 0.802467 8.6629 2 8.20036ZM4 6C4 3.79086 5.79086 2 8 2C10.2091 2 12 3.79086 12 6V8H4V6ZM3.08099 10C2.49809 10 2.03873 10.4965 2.08402 11.0777L2.78531 20.0777C2.82588 20.5983 3.26014 21 3.78229 21H12.2178C12.7399 21 13.1742 20.5983 13.2148 20.0777L13.9161 11.0777C13.9613 10.4965 13.502 10 12.9191 10H3.08099Z" fill="#CDCDCD"/>
</svg>
