<svg width="16" height="16" viewBox="0 0 16 16" fill="none" xmlns="http://www.w3.org/2000/svg">
<path d="M12 5.33337C13.1046 5.33337 14 4.43794 14 3.33337C14 2.2288 13.1046 1.33337 12 1.33337C10.8954 1.33337 10 2.2288 10 3.33337C10 4.43794 10.8954 5.33337 12 5.33337Z" stroke="#25282B" stroke-width="1.33333" stroke-linecap="round" stroke-linejoin="round"/>
<path d="M4 10.0001C5.10457 10.0001 6 9.10463 6 8.00006C6 6.89549 5.10457 6.00006 4 6.00006C2.89543 6.00006 2 6.89549 2 8.00006C2 9.10463 2.89543 10.0001 4 10.0001Z" stroke="#25282B" stroke-width="1.33333" stroke-linecap="round" stroke-linejoin="round"/>
<path d="M12 14.6667C13.1046 14.6667 14 13.7713 14 12.6667C14 11.5622 13.1046 10.6667 12 10.6667C10.8954 10.6667 10 11.5622 10 12.6667C10 13.7713 10.8954 14.6667 12 14.6667Z" stroke="#25282B" stroke-width="1.33333" stroke-linecap="round" stroke-linejoin="round"/>
<path d="M5.72668 9.00671L10.28 11.66" stroke="#25282B" stroke-width="1.33333" stroke-linecap="round" stroke-linejoin="round"/>
<path d="M10.2734 4.34003L5.72668 6.99336" stroke="#25282B" stroke-width="1.33333" stroke-linecap="round" stroke-linejoin="round"/>
</svg>
