<svg width="32" height="32" viewBox="0 0 32 32" fill="none" xmlns="http://www.w3.org/2000/svg">
<path d="M32 16C32 24.8366 24.8366 32 16 32C7.16344 32 0 24.8366 0 16C0 7.16344 7.16344 0 16 0C24.8366 0 32 7.16344 32 16Z" fill="#FFDD66"/>
<g clip-path="url(#clip0_4333_59210)">
<path d="M18.4147 11.1421C18.4147 12.4757 17.3336 13.5568 16 13.5568C14.6663 13.5568 13.5852 12.4757 13.5852 11.1421C13.5852 9.80842 14.6663 8.72729 16 8.72729C17.3336 8.72729 18.4147 9.80842 18.4147 11.1421Z" fill="#282828"/>
<path d="M16.0001 14.4091C16.6538 14.4091 17.2632 14.2159 17.7745 13.8839C18.3397 14.0999 18.8637 14.4186 19.3194 14.8275L16.0001 16.0723L12.6808 14.8275C13.1364 14.4186 13.6605 14.0999 14.2257 13.8839C14.737 14.2159 15.3464 14.4091 16.0001 14.4091Z" fill="#282828"/>
<path d="M20.8296 17.5342C20.5942 17.5342 20.4034 17.7249 20.4034 17.9603V19.0967C20.4034 19.332 20.5942 19.5228 20.8296 19.5228H21.1136C21.6628 19.5228 22.108 19.0776 22.108 18.5285C22.108 17.9793 21.6628 17.5342 21.1136 17.5342H20.8296Z" fill="#282828"/>
<path d="M11.0284 15.7332C11.0284 15.5934 11.097 15.4626 11.2119 15.3829C11.3267 15.3033 11.4733 15.2851 11.6042 15.3342L15.5739 16.8228V23.2728L11.305 21.6719C11.1386 21.6096 11.0284 21.4506 11.0284 21.273V20.3751H11.1705C11.8754 20.3751 12.4489 19.8016 12.4489 19.0967V17.9603C12.4489 17.2554 11.8754 16.6819 11.1705 16.6819H11.0284V15.7332Z" fill="#282828"/>
<path d="M19.5512 19.0967V17.9603C19.5512 17.2554 20.1247 16.6819 20.8296 16.6819H20.9716V15.7332C20.9716 15.5934 20.9031 15.4626 20.7882 15.3829C20.6733 15.3033 20.5267 15.2851 20.3959 15.3342L16.4261 16.8228V23.2728L20.6951 21.6719C20.8614 21.6096 20.9716 21.4506 20.9716 21.273V20.3751H20.8296C20.1247 20.3751 19.5512 19.8016 19.5512 19.0967Z" fill="#282828"/>
<path d="M11.1705 17.5342C11.4058 17.5342 11.5966 17.7249 11.5966 17.9603V19.0967C11.5966 19.332 11.4058 19.5228 11.1705 19.5228H10.8864C10.3373 19.5228 9.89209 19.0776 9.89209 18.5285C9.89209 17.9793 10.3373 17.5342 10.8864 17.5342H11.1705Z" fill="#282828"/>
</g>
<defs>
<clipPath id="clip0_4333_59210">
<rect width="14.5455" height="14.5455" fill="white" transform="translate(8.72729 8.72729)"/>
</clipPath>
</defs>
</svg>
