<svg width="64" height="64" viewBox="0 0 64 64" fill="none" xmlns="http://www.w3.org/2000/svg">
<path fill-rule="evenodd" clip-rule="evenodd" d="M57.0408 10.9703C59.782 11.7084 61.9436 13.869 62.6814 16.6101C64.0525 21.6167 63.9997 32.0527 63.9997 32.0527C63.9997 32.0527 63.9997 42.4355 62.6819 47.4427C61.9436 50.1832 59.7825 52.3443 57.0408 53.082C52.0325 54.4 31.9999 54.4 31.9999 54.4C31.9999 54.4 12.0195 54.4 6.95896 53.0297C4.21727 52.2916 2.05614 50.1305 1.31787 47.3899C0 42.4355 0 32 0 32C0 32 0 21.6167 1.31787 16.6101C2.05566 13.8695 4.27 11.6557 6.95847 10.9181C11.9667 9.60001 31.9994 9.60001 31.9994 9.60001C31.9994 9.60001 52.0325 9.60001 57.0408 10.9703ZM42.2798 32L25.6211 41.5925V22.4075L42.2798 32Z" fill="#C4302B"/>
<path d="M42.2798 32L25.6211 41.5925V22.4075L42.2798 32Z" fill="white"/>
</svg>
