<svg width="24" height="24" viewBox="0 0 24 24" fill="none" xmlns="http://www.w3.org/2000/svg">
<path d="M12 0.585938L16.7071 5.29304L15.2929 6.70726L13 4.41435V17.0001C13 17.5524 12.5523 18.0001 12 18.0001C11.4477 18.0001 11 17.5524 11 17.0001V4.41438L8.70712 6.70726L7.29291 5.29304L12 0.585938Z" fill="#282828"/>
<path d="M4 8.00012C4.55228 8.00012 5 8.44784 5 9.00012C5 9.55241 4.55228 10.0001 4 10.0001C2.89543 10.0001 2 10.8956 2 12.0001V20.0001C2 21.1047 2.89543 22.0001 4 22.0001H20C21.1046 22.0001 22 21.1047 22 20.0001V12.0001C22 10.8956 21.1046 10.0001 20 10.0001C19.4477 10.0001 19 9.55241 19 9.00012C19 8.44784 19.4477 8.00012 20 8.00012C22.2091 8.00012 24 9.79098 24 12.0001V20.0001C24 22.2093 22.2091 24.0001 20 24.0001H4C1.79086 24.0001 0 22.2093 0 20.0001V12.0001C0 9.79098 1.79086 8.00012 4 8.00012Z" fill="#282828"/>
</svg>
