<svg width="20" height="20" viewBox="0 0 20 20" fill="none" xmlns="http://www.w3.org/2000/svg">
<path d="M13.0666 5.99892L12.7446 4.06693C12.6744 3.64627 13.1293 3.33657 13.495 3.55598L14.5315 4.17786C14.8469 4.06294 15.1974 3.99892 15.5666 3.99892C15.9357 3.99892 16.2862 4.06294 16.6016 4.17786L17.6381 3.55598C18.0038 3.33657 18.4587 3.64627 18.3885 4.06693L18.0666 5.99892C18.0666 6.63722 17.8996 7.20568 17.3727 7.57186C17.4798 8.01863 17.5666 8.77454 17.5666 9.99892C17.5666 12.3989 16.2332 13.9989 15.5666 14.4989V17.7782C15.5666 18.2086 15.842 18.5907 16.2503 18.7268L16.6692 18.8665C16.9065 18.9456 17.0666 19.1676 17.0666 19.4178C17.0666 19.7387 16.8064 19.9989 16.4854 19.9989C13.5804 19.9989 10.675 19.9845 7.77007 20C6.81982 20.0051 5.41898 20.0125 4.18319 19.649C3.47716 19.4413 2.75826 19.0966 2.17879 18.51C1.58661 17.9105 1.19849 17.117 1.07425 16.1229C0.802068 13.9452 1.33444 12.0459 1.76185 10.5212L1.7911 10.4168C2.2535 8.76532 2.48854 7.74651 2.13805 6.87031C1.93294 6.35753 2.18235 5.77556 2.69513 5.57044C3.20791 5.36532 3.78988 5.61474 3.995 6.12752C4.62777 7.70939 4.15542 9.39318 3.74917 10.8414L3.71702 10.956C3.27383 12.5389 2.8373 14.1026 3.05881 15.8749C3.133 16.4685 3.3441 16.8438 3.60164 17.1045C3.87189 17.3781 4.2532 17.5849 4.74757 17.7303C5.4652 17.9414 6.27902 17.9887 7.06655 17.998C7.06669 13.4982 8.06683 7.99892 12.0666 7.99892C12.8264 7.99892 13.2869 7.74229 13.578 7.42404C13.1941 7.06129 13.0666 6.55677 13.0666 5.99892Z" fill="#282828"/>
</svg>
