<svg width="20" height="20" viewBox="0 0 20 20" fill="none" xmlns="http://www.w3.org/2000/svg">
<path d="M4.51073 1.50357L5.25059 3.747L19.6181 3.96175L18.6157 8.18607C18.4539 8.87751 17.8671 9.38736 17.1599 9.451L7.44628 10.4534L7.5895 10.8114C7.617 10.9305 7.60868 11.055 7.56565 11.1694L7.27927 11.8854C7.1287 12.2638 7.17329 12.6919 7.39859 13.031C7.6074 13.3746 7.97523 13.5899 8.37709 13.6038H17.685C17.9486 13.6038 18.1623 13.8175 18.1623 14.0812C18.1623 14.3448 17.9486 14.5585 17.685 14.5585H8.37714C7.65258 14.5367 6.98435 14.1625 6.58715 13.5561C6.20502 12.931 6.13449 12.164 6.3962 11.4797L6.61099 10.9308L3.60381 1.78999C3.4342 1.29937 2.9772 0.966122 2.45821 0.954656H0.859164C0.595535 0.954656 0.381836 0.740957 0.381836 0.477328C0.381836 0.213699 0.595535 0 0.859164 0H2.45821C3.39263 0.0133391 4.21622 0.616657 4.51073 1.50357Z" fill="#282828"/>
<path d="M6.94507 20C8.13136 20 9.09303 19.0383 9.09303 17.8521C9.09303 16.6658 8.13136 15.7041 6.94507 15.7041C5.75879 15.7041 4.79712 16.6658 4.79712 17.8521C4.79712 19.0383 5.75879 20 6.94507 20Z" fill="#282828"/>
<path d="M16.0144 20C17.2007 20 18.1624 19.0383 18.1624 17.8521C18.1624 16.6658 17.2007 15.7041 16.0144 15.7041C14.8281 15.7041 13.8665 16.6658 13.8665 17.8521C13.8665 19.0383 14.8281 20 16.0144 20Z" fill="#282828"/>
</svg>
