<svg width="24" height="24" viewBox="0 0 24 24" fill="none" xmlns="http://www.w3.org/2000/svg">
<path d="M14 8C14.5523 8 15 7.55228 15 7C15 6.44772 14.5523 6 14 6C13.4477 6 13 6.44772 13 7C13 7.55228 13.4477 8 14 8Z" fill="#282828"/>
<path d="M15 13C15.5523 13 16 12.5523 16 12C16 11.4477 15.5523 11 15 11C14.4477 11 14 11.4477 14 12C14 12.5523 14.4477 13 15 13Z" fill="#282828"/>
<path d="M18 11C18.5523 11 19 10.5523 19 10C19 9.44772 18.5523 9 18 9C17.4477 9 17 9.44772 17 10C17 10.5523 17.4477 11 18 11Z" fill="#282828"/>
<path d="M7 18C7.55228 18 8 17.5523 8 17C8 16.4477 7.55228 16 7 16C6.44772 16 6 16.4477 6 17C6 17.5523 6.44772 18 7 18Z" fill="#282828"/>
<path fill-rule="evenodd" clip-rule="evenodd" d="M16.6787 16.6787C19.7583 15.7453 22 12.8844 22 9.5C22 5.35786 18.6421 2 14.5 2C11.1156 2 8.25474 4.24173 7.32134 7.32134C4.24173 8.25474 2 11.1156 2 14.5C2 18.6421 5.35786 22 9.5 22C12.8844 22 15.7453 19.7583 16.6787 16.6787ZM14.9794 14.9794C14.8214 14.993 14.6615 15 14.5 15C11.4624 15 9 12.5376 9 9.5C9 9.33848 9.00696 9.17859 9.0206 9.02061C9.08297 8.29833 9.28493 7.61597 9.59938 7.00065C10.5096 5.21946 12.3624 4 14.5 4C17.5376 4 20 6.46243 20 9.5C20 11.6376 18.7805 13.4904 16.9994 14.4006C16.384 14.7151 15.7017 14.917 14.9794 14.9794ZM7.47997 12.1457C7.18079 11.3522 7.01227 10.4947 7.00065 9.59938C5.21946 10.5096 4 12.3624 4 14.5C4 17.5376 6.46243 20 9.5 20C11.6376 20 13.4904 18.7805 14.4006 16.9994C13.5162 16.9879 12.6687 16.8233 11.8834 16.5309C11.9578 16.6708 12 16.8305 12 17C12 17.5523 11.5523 18 11 18C10.4477 18 10 17.5523 10 17C10 16.5186 10.3401 16.1167 10.7932 16.0214C9.86197 15.491 9.05544 14.7668 8.42841 13.9038C8.29856 13.9655 8.15331 14 8 14C7.44772 14 7 13.5523 7 13C7 12.6382 7.19215 12.3213 7.47997 12.1457Z" fill="#282828"/>
</svg>
