<svg width="12" height="12" viewBox="0 0 12 12" fill="none" xmlns="http://www.w3.org/2000/svg">
<path fill-rule="evenodd" clip-rule="evenodd" d="M10.6951 2.05692C11.2091 2.19531 11.6144 2.60043 11.7528 3.11438C12.0098 4.05312 11.9999 6.00987 11.9999 6.00987C11.9999 6.00987 11.9999 7.95665 11.7528 8.89548C11.6144 9.40934 11.2092 9.81455 10.6951 9.95285C9.75609 10.2 5.99997 10.2 5.99997 10.2C5.99997 10.2 2.25365 10.2 1.3048 9.94306C0.790738 9.80466 0.385527 9.39946 0.2471 8.8856C0 7.95665 0 5.99999 0 5.99999C0 5.99999 0 4.05312 0.2471 3.11438C0.385435 2.60052 0.800625 2.18543 1.30471 2.04712C2.24376 1.79999 5.99988 1.79999 5.99988 1.79999C5.99988 1.79999 9.75609 1.79999 10.6951 2.05692ZM7.92746 5.99998L4.80395 7.79858V4.20139L7.92746 5.99998Z" fill="#282828"/>
</svg>
