<svg width="20" height="20" viewBox="0 0 20 20" fill="none" xmlns="http://www.w3.org/2000/svg">
<path d="M15.2137 2.43683C14.2773 2.31357 12.0943 2.50085 10.8533 4.23608C9.83743 5.65656 10.397 6.79406 10.8634 7.62423C10.7167 7.84053 10.5635 8.08831 10.4182 8.36239C9.92159 9.29911 9.49101 10.5947 9.79075 12.0001H6.00003C5.72389 12.0001 5.50003 12.224 5.50003 12.5001V13.5001C5.50003 13.7762 5.72389 14.0001 6.00003 14.0001H14C14.2762 14.0001 14.5 13.7762 14.5 13.5001V12.5001C14.5 12.224 14.2762 12.0001 14 12.0001H10.82C10.4969 10.8375 10.8339 9.7132 11.3017 8.8308C11.4203 8.60719 11.5453 8.40286 11.6665 8.22195C12.6072 8.39774 13.8883 8.58763 14.9203 7.14469C16.1613 5.40946 15.633 3.28311 15.2137 2.43683Z" fill="#282828"/>
<path d="M4.835 7.24999C4.77659 7.98607 4.9897 9.64871 6.30935 10.4106C7.44252 11.0648 8.28679 10.4171 8.88789 9.9559C8.98682 9.88 9.07916 9.80915 9.16512 9.74999C9.17338 9.64597 9.18856 9.53058 9.20483 9.40696C9.30368 8.65579 9.44252 7.60074 8.30935 6.94651C6.9897 6.18461 5.44326 6.83137 4.835 7.24999Z" fill="#282828"/>
<path d="M6.38089 15.0001L7.17844 19.1872C7.26828 19.6589 7.68065 20.0001 8.16078 20.0001H11.8391C12.3192 20.0001 12.7316 19.6589 12.8214 19.1872L13.619 15.0001H6.38089Z" fill="#282828"/>
</svg>
