<svg width="12" height="12" viewBox="0 0 12 12" fill="none" xmlns="http://www.w3.org/2000/svg">
<path fill-rule="evenodd" clip-rule="evenodd" d="M6 11.8064C4.90524 11.8037 3.83387 11.4895 2.91098 10.9006L0.19355 11.8064L1.09939 9.08825C0.416945 7.99917 0.115809 6.71414 0.243449 5.43526C0.371089 4.15638 0.920267 2.95619 1.8045 2.02348C2.68873 1.09076 3.85784 0.478429 5.12809 0.28277C6.39834 0.0871113 7.69765 0.31924 8.82157 0.942635C9.9455 1.56603 10.8303 2.54533 11.3369 3.72652C11.8434 4.90771 11.943 6.22377 11.6199 7.46773C11.2968 8.7117 10.5694 9.81299 9.55211 10.5984C8.53477 11.3838 7.28523 11.8087 6 11.8064ZM7.26194 6.87946C7.64809 7.0057 8.04097 7.11037 8.43873 7.19301C8.48056 7.19916 8.52069 7.21371 8.55677 7.23575C8.59285 7.25779 8.62415 7.28689 8.64872 7.3213C8.6733 7.3557 8.6907 7.3947 8.69985 7.43598C8.709 7.47726 8.70967 7.51997 8.70193 7.56153V7.78062C8.70576 7.8602 8.691 7.93957 8.65874 8.01242C8.62648 8.08527 8.57763 8.1496 8.51613 8.20025C8.32533 8.39394 8.09937 8.54947 7.85034 8.65856C7.48294 8.70244 7.11038 8.6701 6.75605 8.56353C6.40172 8.45697 6.07319 8.27848 5.79095 8.03921C5.42676 7.79526 5.08715 7.51653 4.77681 7.20694C4.46774 6.89482 4.18781 6.55508 3.94062 6.19197C3.70339 5.90948 3.5267 5.5813 3.4215 5.22773C3.31629 4.87416 3.28487 4.50273 3.32907 4.13649C3.43833 3.88885 3.59327 3.66403 3.78582 3.47379C3.83487 3.41104 3.89873 3.36149 3.97171 3.3296C4.0447 3.2977 4.12454 3.28447 4.20391 3.29109H4.42837C4.51305 3.27939 4.59897 3.30175 4.66718 3.35327C4.7354 3.40479 4.78031 3.48126 4.79221 3.56591C4.90834 4.02423 4.99353 4.35559 5.10966 4.7272C5.15611 4.88204 5.10198 4.91998 4.97811 5.01211C4.90069 5.07173 4.83875 5.11508 4.77681 5.16153C4.74091 5.17708 4.70866 5.20002 4.68221 5.22884C4.65576 5.25766 4.63565 5.29173 4.62324 5.32883C4.61082 5.36592 4.60642 5.40521 4.6102 5.44415C4.61397 5.48308 4.62586 5.52079 4.64516 5.55481C4.84288 5.93534 5.09593 6.28444 5.39611 6.59069C5.70192 6.89144 6.0518 7.14389 6.4336 7.33935C6.46777 7.35834 6.50543 7.37002 6.54436 7.37368C6.58328 7.37733 6.62254 7.37286 6.65965 7.36056C6.69676 7.34827 6.73098 7.3284 6.76002 7.30223C6.78906 7.27606 6.81227 7.24414 6.82835 7.2085C6.8748 7.14579 6.91356 7.08772 6.97549 7.00643C6.98524 6.97866 7.0005 6.95314 7.02029 6.93137C7.04008 6.90959 7.06398 6.89199 7.0907 6.87965C7.11741 6.8673 7.14634 6.86046 7.17575 6.85949C7.20516 6.85853 7.23448 6.86348 7.26194 6.87405V6.87946Z" fill="#282828"/>
</svg>
