<svg width="20" height="20" viewBox="0 0 20 20" fill="none" xmlns="http://www.w3.org/2000/svg">
<path d="M5.625 0C7.35125 0 8.75 1.67875 8.75 3.75C8.75 5.45875 7.79125 6.885 6.48875 7.33625L7.49125 17.9463C7.4975 18.005 7.5 18.065 7.5 18.125C7.5 19.16 6.66 20 5.625 20C4.59 20 3.75 19.16 3.75 18.125C3.75 18.0537 3.75375 17.9825 3.7625 17.9137L4.94125 7.40375C3.545 7.02875 2.5 5.53875 2.5 3.75C2.5 1.67875 3.89875 0 5.625 0Z" fill="#282828"/>
<path d="M16.25 0.625C16.25 0.28 16.53 0 16.875 0C17.22 0 17.5 0.28 17.5 0.625V4.375C17.5 5.795 16.5413 6.98375 15.2413 7.3625L16.2412 17.9463C16.2475 18.005 16.25 18.065 16.25 18.125C16.25 19.16 15.41 20 14.375 20C13.34 20 12.5 19.16 12.5 18.125C12.5 18.0537 12.5037 17.9825 12.5112 17.9137L13.6888 7.41875C12.295 7.105 11.25 5.86125 11.25 4.375V0.625C11.25 0.28 11.53 0 11.875 0C12.22 0 12.5 0.28 12.5 0.625V3.75C12.5 4.095 12.78 4.375 13.125 4.375C13.47 4.375 13.75 4.095 13.75 3.75V0.625C13.75 0.28 14.03 0 14.375 0C14.72 0 15 0.28 15 0.625V3.75C15 4.095 15.28 4.375 15.625 4.375C15.97 4.375 16.25 4.095 16.25 3.75V0.625Z" fill="#282828"/>
</svg>
