<svg width="28" height="28" viewBox="0 0 28 28" fill="none" xmlns="http://www.w3.org/2000/svg">
<mask id="mask0_131_315" style="mask-type:alpha" maskUnits="userSpaceOnUse" x="2" y="2" width="24" height="24">
<path d="M2 14C2 7.37258 7.37258 2 14 2C20.6274 2 26 7.37258 26 14C26 20.6274 20.6274 26 14 26C7.37258 26 2 20.6274 2 14Z" fill="black"/>
</mask>
<g mask="url(#mask0_131_315)">
<path d="M2 14C2 7.37258 7.37258 2 14 2C20.6274 2 26 7.37258 26 14C26 20.6274 20.6274 26 14 26C7.37258 26 2 20.6274 2 14Z" fill="black"/>
<path fill-rule="evenodd" clip-rule="evenodd" d="M13.6404 2C13.58 6.86464 13.2479 9.5988 11.4234 11.4233C9.5988 13.2479 6.86464 13.58 2 13.6404V14.3596C6.86464 14.42 9.59882 14.7521 11.4234 16.5767C13.2479 18.4012 13.58 21.1354 13.6404 26H14.3596C14.42 21.1354 14.7521 18.4012 16.5767 16.5766C18.4012 14.7521 21.1354 14.42 26 14.3596V13.6404C21.1354 13.5799 18.4012 13.2479 16.5766 11.4233C14.7521 9.5988 14.42 6.86462 14.3596 2H13.6404Z" fill="white"/>
</g>
</svg>
